<svg width="16" height="16" viewBox="0 0 16 16" fill="none" xmlns="http://www.w3.org/2000/svg">
<path d="M10.087 4.24768C10.087 6.7797 9.8713 8.50133 9.57565 11.6211C9.48522 12.5706 9.44 13.4888 8.69565 14.6088H7.30435C6.84997 13.9227 6.57053 13.1357 6.49043 12.3167C5.79478 4.90503 5.49913 3.0721 6.91826 0.926149C7.03764 0.748969 7.19872 0.603825 7.38734 0.503476C7.57596 0.403128 7.78634 0.350647 8 0.350647C8.21365 0.350647 8.42404 0.403128 8.61266 0.503476C8.80128 0.603825 8.96236 0.748969 9.08174 0.926149C9.73614 1.9104 10.0858 3.06575 10.087 4.24768Z" fill="#F8F9F9"/>
<path d="M6.72004 13.4054L4.17395 13.9132V12.8698L6.42438 11.6212C6.44573 12.2261 6.5451 12.8258 6.72004 13.4054Z" fill="#BEC6C6"/>
<path d="M11.8261 12.8698V13.9132L9.28003 13.4054C9.45581 12.826 9.5552 12.2262 9.57568 11.6212L11.8261 12.8698Z" fill="#BEC6C6"/>
<path d="M15.6521 8.3483V9.73952L9.81213 9.1239C9.92344 7.98658 9.99996 7.2875 10.0452 6.03888L15.6521 8.3483Z" fill="#BEC6C6"/>
<path d="M13.5653 5.91366V7.48921L12.174 6.91534V5.91366C12.174 5.82142 12.2106 5.73295 12.2758 5.66773C12.3411 5.6025 12.4295 5.56586 12.5218 5.56586H13.2174C13.3097 5.56586 13.3981 5.6025 13.4634 5.66773C13.5286 5.73295 13.5653 5.82142 13.5653 5.91366Z" fill="#F8F9F9"/>
<path d="M6.18778 9.1239L0.347778 9.73952V8.3483L5.95473 6.03888C5.99995 7.30489 6.07995 8.02484 6.18778 9.1239Z" fill="#BEC6C6"/>
<path d="M3.82612 5.91366V6.91534L2.43481 7.48921V5.91366C2.43481 5.82142 2.47146 5.73295 2.53669 5.66773C2.60192 5.6025 2.69039 5.56586 2.78264 5.56586H3.47829C3.57054 5.56586 3.65901 5.6025 3.72424 5.66773C3.78947 5.73295 3.82612 5.82142 3.82612 5.91366Z" fill="#F8F9F9"/>
<path d="M8.69562 14.9566H7.30432C7.24703 14.9563 7.1907 14.9418 7.14034 14.9145C7.08997 14.8872 7.04713 14.8479 7.01562 14.8001C6.5297 14.0722 6.22991 13.2362 6.14258 12.3654C5.75997 8.32744 5.56519 6.79362 5.56519 4.24769C5.56418 2.99718 5.93462 1.77455 6.62954 0.73487C6.77966 0.508882 6.98334 0.323527 7.22244 0.195311C7.46155 0.0670957 7.72865 0 7.99997 0C8.27129 0 8.53839 0.0670957 8.7775 0.195311C9.0166 0.323527 9.22029 0.508882 9.37041 0.73487C10.0653 1.77455 10.4358 2.99718 10.4348 4.24769C10.4348 6.80753 10.24 8.32048 9.85388 12.3481C9.76942 13.2189 9.47068 14.0553 8.98432 14.7827C8.95488 14.8338 8.91294 14.8765 8.86244 14.9069C8.81194 14.9374 8.75454 14.9544 8.69562 14.9566ZM7.49562 14.261H8.50432C8.87185 13.6615 9.09677 12.9856 9.16171 12.2854C9.54432 8.27874 9.7391 6.7658 9.7391 4.24769C9.74097 3.13358 9.41167 2.04404 8.79301 1.11745C8.70599 0.986889 8.58807 0.879831 8.44972 0.805785C8.31138 0.731739 8.15689 0.692996 7.99997 0.692996C7.84305 0.692996 7.68856 0.731739 7.55022 0.805785C7.41187 0.879831 7.29395 0.986889 7.20693 1.11745C6.58827 2.04404 6.25897 3.13358 6.26084 4.24769C6.26084 6.77623 6.45562 8.30309 6.83823 12.2854C6.90317 12.9856 7.12809 13.6615 7.49562 14.261Z" fill="#414141"/>
<path d="M8.3478 15.6522H7.65215C7.5599 15.6522 7.47143 15.6155 7.4062 15.5503C7.34097 15.4851 7.30432 15.3966 7.30432 15.3044V13.301C7.30415 13.0671 7.36914 12.8378 7.49201 12.6387C7.61489 12.4397 7.79078 12.2788 7.99997 12.1741C8.20917 12.2788 8.38506 12.4397 8.50794 12.6387C8.63081 12.8378 8.6958 13.0671 8.69563 13.301V15.3044C8.69563 15.3966 8.65898 15.4851 8.59375 15.5503C8.52852 15.6155 8.44005 15.6522 8.3478 15.6522Z" fill="#BEC6C6"/>
<path d="M8.34786 16H7.65221C7.46771 16 7.29077 15.9267 7.16031 15.7963C7.02985 15.6658 6.95656 15.4889 6.95656 15.3044V13.301C6.95537 13.0026 7.03784 12.7099 7.19462 12.456C7.35139 12.2021 7.57619 11.9972 7.84351 11.8646C7.89206 11.8401 7.94567 11.8274 8.00003 11.8274C8.0544 11.8274 8.10801 11.8401 8.15656 11.8646C8.42388 11.9972 8.64868 12.2021 8.80545 12.456C8.96222 12.7099 9.0447 13.0026 9.04351 13.301V15.3044C9.04351 15.4889 8.97022 15.6658 8.83976 15.7963C8.7093 15.9267 8.53236 16 8.34786 16ZM8.00003 12.5846C7.89101 12.6693 7.80294 12.778 7.74263 12.9023C7.68232 13.0265 7.65138 13.1629 7.65221 13.301V15.3044H8.34786V13.301C8.34868 13.1629 8.31775 13.0265 8.25743 12.9023C8.19712 12.778 8.10905 12.6693 8.00003 12.5846Z" fill="#414141"/>
<path d="M4.17388 14.261C4.08163 14.261 3.99316 14.2243 3.92793 14.1591C3.8627 14.0939 3.82605 14.0054 3.82605 13.9132V12.8698C3.82616 12.8081 3.84264 12.7477 3.87381 12.6945C3.90498 12.6413 3.94971 12.5974 4.00344 12.5672L6.26083 11.3186C6.30057 11.2957 6.34442 11.2809 6.38987 11.2751C6.43533 11.2692 6.4815 11.2723 6.52575 11.2842C6.57 11.2962 6.61146 11.3167 6.64777 11.3447C6.68407 11.3727 6.71452 11.4075 6.73735 11.4473C6.76019 11.487 6.77498 11.5308 6.78087 11.5763C6.78677 11.6217 6.78365 11.6679 6.7717 11.7122C6.75975 11.7564 6.7392 11.7979 6.71122 11.8342C6.68325 11.8705 6.6484 11.9009 6.60866 11.9237L4.5217 13.075V13.4889L6.6504 13.0645C6.74265 13.0461 6.83845 13.065 6.91672 13.1172C6.995 13.1694 7.04934 13.2505 7.06779 13.3428C7.08624 13.435 7.06729 13.5308 7.0151 13.6091C6.96292 13.6874 6.88178 13.7417 6.78953 13.7602C3.94779 14.3132 4.22257 14.261 4.17388 14.261Z" fill="#414141"/>
<path d="M11.8261 14.261C11.7774 14.261 11.8852 14.261 9.21044 13.7462C9.16476 13.7371 9.12133 13.7191 9.08263 13.6931C9.04393 13.6672 9.01071 13.6339 8.98487 13.5952C8.95903 13.5564 8.94108 13.513 8.93204 13.4673C8.923 13.4216 8.92305 13.3746 8.93218 13.3289C8.94132 13.2832 8.95936 13.2398 8.98528 13.2011C9.0112 13.1624 9.04449 13.1292 9.08325 13.1033C9.12201 13.0775 9.16547 13.0595 9.21117 13.0505C9.25687 13.0414 9.30389 13.0415 9.34957 13.0506L11.4783 13.4889V13.075L9.39131 11.9237C9.35157 11.9009 9.31672 11.8705 9.28875 11.8342C9.26077 11.7979 9.24022 11.7564 9.22827 11.7122C9.21632 11.6679 9.2132 11.6217 9.2191 11.5763C9.22499 11.5308 9.23978 11.487 9.26262 11.4473C9.28545 11.4075 9.3159 11.3727 9.3522 11.3447C9.38851 11.3167 9.42997 11.2962 9.47422 11.2842C9.51847 11.2723 9.56464 11.2692 9.6101 11.2751C9.65555 11.2809 9.6994 11.2957 9.73914 11.3186L11.9896 12.5672C12.0446 12.5965 12.0907 12.64 12.1232 12.6932C12.1556 12.7465 12.1731 12.8074 12.1739 12.8698V13.9132C12.1739 14.0054 12.1373 14.0939 12.072 14.1591C12.0068 14.2243 11.9183 14.261 11.8261 14.261Z" fill="#414141"/>
<path d="M15.6522 11.8264H11.4783V15.6522H15.6522V11.8264Z" fill="#F8F9F9"/>
<path d="M15.6522 10.0873C15.6174 10.0873 16 10.1256 9.77743 9.46821C9.73175 9.46365 9.68742 9.45013 9.64697 9.42843C9.60651 9.40673 9.57073 9.37728 9.54166 9.34175C9.51259 9.30623 9.49081 9.26532 9.47755 9.22138C9.46429 9.17743 9.45981 9.13131 9.46438 9.08563C9.46895 9.03996 9.48247 8.99563 9.50417 8.95518C9.52587 8.91473 9.55532 8.87895 9.59085 8.84988C9.62638 8.82082 9.66729 8.79903 9.71124 8.78577C9.75518 8.77251 9.80131 8.76804 9.84699 8.77261L15.3044 9.35344V8.58131L9.91308 6.35885C9.83669 6.31832 9.77813 6.2508 9.74883 6.16945C9.71954 6.08809 9.72159 5.99874 9.7546 5.91882C9.78762 5.8389 9.84922 5.77415 9.92739 5.73718C10.0056 5.70022 10.0947 5.69369 10.1774 5.71889L15.7844 8.02831C15.8479 8.0544 15.9023 8.09871 15.9407 8.15565C15.979 8.21259 15.9997 8.27962 16 8.34829V9.7395C16 9.83175 15.9634 9.92021 15.8982 9.98544C15.8329 10.0507 15.7445 10.0873 15.6522 10.0873Z" fill="#414141"/>
<path d="M13.5652 7.83705C13.4729 7.83705 13.3845 7.8004 13.3192 7.73518C13.254 7.66995 13.2174 7.58148 13.2174 7.48924V5.91369H12.5217V6.91536C12.5217 7.00761 12.4851 7.09607 12.4198 7.1613C12.3546 7.22652 12.2661 7.26317 12.1739 7.26317C12.0816 7.26317 11.9932 7.22652 11.9279 7.1613C11.8627 7.09607 11.826 7.00761 11.826 6.91536V5.91369C11.826 5.7292 11.8993 5.55227 12.0298 5.42182C12.1603 5.29137 12.3372 5.21808 12.5217 5.21808H13.2174C13.4019 5.21808 13.5788 5.29137 13.7093 5.42182C13.8397 5.55227 13.913 5.7292 13.913 5.91369V7.48924C13.913 7.58148 13.8764 7.66995 13.8111 7.73518C13.7459 7.8004 13.6574 7.83705 13.5652 7.83705Z" fill="#414141"/>
<path d="M0.347826 10.0873C0.255577 10.0873 0.167106 10.0507 0.101876 9.98546C0.0366458 9.92023 0 9.83177 0 9.73952V8.34831C0.000342776 8.27964 0.0210045 8.21261 0.0593813 8.15567C0.0977581 8.09873 0.152132 8.05442 0.215652 8.02833L5.82261 5.71891C5.86544 5.69618 5.91256 5.68266 5.96093 5.67922C6.00929 5.67578 6.05785 5.68249 6.10347 5.69892C6.14909 5.71535 6.19077 5.74113 6.22584 5.77462C6.26091 5.80811 6.28859 5.84856 6.3071 5.89337C6.32561 5.93819 6.33455 5.98638 6.33334 6.03485C6.33212 6.08332 6.32079 6.131 6.30006 6.17484C6.27933 6.21867 6.24966 6.25768 6.21296 6.28938C6.17626 6.32107 6.13334 6.34474 6.08696 6.35887L0.695652 8.58133V9.35346L6.15304 8.77958C6.19872 8.77502 6.24485 8.77949 6.2888 8.79275C6.33275 8.80601 6.37365 8.82779 6.40918 8.85686C6.44471 8.88593 6.47416 8.92171 6.49586 8.96216C6.51756 9.0026 6.53109 9.04693 6.53565 9.09261C6.54022 9.13828 6.53575 9.18441 6.52249 9.22835C6.50923 9.2723 6.48744 9.3132 6.45837 9.34873C6.4293 9.38425 6.39352 9.41371 6.35307 9.43541C6.31262 9.4571 6.26829 9.47062 6.22261 9.47519C0.135652 10.1117 0.382609 10.0873 0.347826 10.0873Z" fill="#414141"/>
<path d="M2.43474 7.83705C2.34249 7.83705 2.25402 7.8004 2.18879 7.73518C2.12356 7.66995 2.08691 7.58148 2.08691 7.48924V5.91369C2.08691 5.7292 2.16021 5.55227 2.29067 5.42182C2.42113 5.29137 2.59807 5.21808 2.78257 5.21808H3.47822C3.66272 5.21808 3.83966 5.29137 3.97012 5.42182C4.10058 5.55227 4.17387 5.7292 4.17387 5.91369V6.91536C4.17387 7.00761 4.13722 7.09607 4.07199 7.1613C4.00676 7.22652 3.91829 7.26317 3.82604 7.26317C3.7338 7.26317 3.64532 7.22652 3.58009 7.1613C3.51486 7.09607 3.47822 7.00761 3.47822 6.91536V5.91369H2.78257V7.48924C2.78257 7.58148 2.74592 7.66995 2.68069 7.73518C2.61546 7.8004 2.52699 7.83705 2.43474 7.83705Z" fill="#414141"/>
<path d="M8.69563 3.13122C8.62598 3.12529 8.55855 3.10377 8.49834 3.06825C8.43813 3.03272 8.38668 2.98411 8.34781 2.92602C8.25363 2.83749 8.12924 2.7882 7.99998 2.7882C7.87072 2.7882 7.74633 2.83749 7.65215 2.92602L7.55128 3.03036C7.48579 3.09585 7.39695 3.13264 7.30433 3.13264C7.2117 3.13264 7.12287 3.09585 7.05737 3.03036C6.99187 2.96486 6.95508 2.87604 6.95508 2.78342C6.95508 2.6908 6.99187 2.60197 7.05737 2.53648L7.16172 2.43561C7.38754 2.22002 7.68776 2.09973 7.99998 2.09973C8.3122 2.09973 8.61241 2.22002 8.83824 2.43561L8.94259 2.53648C8.99164 2.58512 9.0251 2.64728 9.03869 2.71501C9.05227 2.78274 9.04538 2.85299 9.01889 2.91679C8.9924 2.9806 8.9475 3.03506 8.88993 3.07325C8.83236 3.11144 8.76472 3.13162 8.69563 3.13122Z" fill="#BEC6C6"/>
<path d="M15.6522 16H11.4783C11.3861 16 11.2976 15.9634 11.2324 15.8981C11.1671 15.8329 11.1305 15.7444 11.1305 15.6522V11.8264C11.1305 11.7341 11.1671 11.6456 11.2324 11.5804C11.2976 11.5152 11.3861 11.4785 11.4783 11.4785H15.6522C15.7445 11.4785 15.833 11.5152 15.8982 11.5804C15.9634 11.6456 16.0001 11.7341 16.0001 11.8264V15.6522C16.0001 15.7444 15.9634 15.8329 15.8982 15.8981C15.833 15.9634 15.7445 16 15.6522 16ZM11.8261 15.3044H15.3044V12.1742H11.8261V15.3044Z" fill="#414141"/>
<path d="M14.2608 13.5654L13.5652 13.2175L12.8695 13.5654V12.1741H14.2608V13.5654Z" fill="#6457FF"/>
</svg>
