<svg width="16" height="16" viewBox="0 0 16 16" fill="none" xmlns="http://www.w3.org/2000/svg">
<path d="M9.20006 11.2415L8.82483 11.0742L12.2783 9.81628C12.4872 9.73825 12.7102 9.71035 12.9308 9.73464C13.1514 9.75893 13.3639 9.83479 13.5527 9.95661C13.7415 10.0784 13.9017 10.2431 14.0215 10.4384C14.1413 10.6338 14.2176 10.8548 14.2448 11.0851L9.50233 12.903C9.61607 12.7856 9.70044 12.6407 9.74797 12.481C9.7955 12.3214 9.80473 12.152 9.77486 11.9878C9.74498 11.8236 9.67691 11.6696 9.57666 11.5394C9.47641 11.4092 9.34707 11.3069 9.20006 11.2415Z" fill="#F8F9F9"/>
<path d="M15.6346 12.0668C15.6341 12.2645 15.5813 12.4582 15.4819 12.6263C15.3825 12.7945 15.2405 12.9305 15.0717 13.0193L10.5168 15.4043C9.95052 15.6915 9.71774 15.6333 7.92497 15.6333C7.54627 15.6333 7.71651 15.6333 4.10319 14.619C3.75575 14.5172 3.54034 14.5426 2.44592 14.5426V9.81629L4.47842 9.55088C4.96728 9.48309 5.46456 9.556 5.9168 9.76175L9.21396 11.2415C9.36149 11.3076 9.4911 11.4109 9.59121 11.5422C9.69132 11.6735 9.75884 11.8287 9.78773 11.9939C9.81663 12.1591 9.80601 12.3293 9.75681 12.4891C9.70762 12.649 9.62139 12.7937 9.5058 12.9102L14.283 11.0706C14.4356 11.0143 14.5989 10.9971 14.7591 11.0203C14.9194 11.0435 15.072 11.1065 15.2043 11.204C15.3365 11.3015 15.4446 11.4307 15.5195 11.5807C15.5943 11.7308 15.6338 11.8975 15.6346 12.0668Z" fill="#F8F9F9"/>
<path d="M9.49196 13.2738C9.42237 13.2736 9.35446 13.2514 9.29702 13.2103C9.23958 13.1692 9.19526 13.111 9.1698 13.0432C9.14435 12.9755 9.13893 12.9013 9.15424 12.8302C9.16956 12.7592 9.20491 12.6946 9.25571 12.6448C9.32908 12.5696 9.38363 12.4766 9.41451 12.3741C9.44539 12.2716 9.45167 12.1627 9.43278 12.057C9.41389 11.9514 9.37042 11.8522 9.30621 11.7683C9.24199 11.6844 9.15902 11.6183 9.06462 11.576L5.76746 10.0962C5.37342 9.92023 4.94194 9.85627 4.51669 9.91082L2.47377 10.1799C2.42815 10.1856 2.38189 10.1819 2.33764 10.1689C2.2934 10.1559 2.25202 10.1339 2.21589 10.1042C2.14291 10.0442 2.0957 9.95635 2.08465 9.85993C2.07359 9.7635 2.09959 9.66643 2.15693 9.59007C2.21427 9.5137 2.29824 9.4643 2.39039 9.45273L4.42288 9.18733C4.97304 9.11448 5.53182 9.19604 6.04193 9.42365L9.33562 10.907C9.53629 10.9969 9.71253 11.1375 9.84855 11.3162C9.98457 11.4949 10.0761 11.706 10.115 11.9308C10.1539 12.1556 10.139 12.387 10.0715 12.6042C10.0039 12.8215 9.88602 13.0178 9.72822 13.1756C9.66414 13.2384 9.57974 13.2735 9.49196 13.2738Z" fill="#414141"/>
<path d="M9.58224 15.9969C7.82422 15.9969 7.69567 16.026 7.28917 15.906C3.68974 14.8807 3.85651 14.9062 3.54382 14.9062H2.43203C2.33988 14.9062 2.25151 14.8679 2.18636 14.7997C2.1212 14.7315 2.08459 14.6391 2.08459 14.5426C2.08459 14.4462 2.1212 14.3537 2.18636 14.2856C2.25151 14.2174 2.33988 14.1791 2.43203 14.1791C4.24217 14.1791 3.34578 14.03 7.46984 15.208C7.77211 15.2916 7.81727 15.2698 9.58224 15.2698C9.85349 15.2691 10.121 15.2032 10.364 15.0771L14.9154 12.6957C15.0196 12.6422 15.1087 12.561 15.1739 12.4604C15.239 12.3597 15.2778 12.243 15.2866 12.1218C15.2954 12.0006 15.2738 11.8791 15.2239 11.7693C15.174 11.6596 15.0976 11.5653 15.0022 11.4959C14.9148 11.4304 14.8132 11.3885 14.7065 11.3739C14.5998 11.3593 14.4914 11.3725 14.3907 11.4123L9.67605 13.2302C9.50082 13.3821 9.29214 13.486 9.06889 13.5323C8.84565 13.5787 8.61489 13.566 8.39749 13.4956L6.14264 12.7248C6.09929 12.7095 6.05925 12.6855 6.02479 12.654C5.99033 12.6225 5.96213 12.5842 5.94181 12.5414C5.92148 12.4985 5.90943 12.4519 5.90633 12.4041C5.90323 12.3564 5.90915 12.3084 5.92375 12.2631C5.93835 12.2177 5.96135 12.1758 5.99142 12.1398C6.0215 12.1037 6.05807 12.0742 6.09904 12.0529C6.14001 12.0317 6.18459 12.019 6.23022 12.0158C6.27585 12.0126 6.32165 12.0187 6.36499 12.034L8.61985 12.8193C8.72807 12.8532 8.8428 12.8572 8.95296 12.8311C9.06313 12.805 9.16499 12.7496 9.24871 12.6703C9.32514 12.5903 8.92907 12.7575 14.1475 10.747C14.4758 10.6144 14.8403 10.6199 15.1647 10.7622C15.4892 10.9046 15.7484 11.1728 15.8881 11.5108C16.0277 11.8487 16.037 12.23 15.914 12.5749C15.791 12.9198 15.5452 13.2015 15.2281 13.361L10.6732 15.7279C10.3341 15.9039 9.9608 15.996 9.58224 15.9969Z" fill="#414141"/>
<path d="M0.347412 9.08914H1.73715C1.92144 9.08914 2.09819 9.16575 2.2285 9.30211C2.35881 9.43848 2.43202 9.62343 2.43202 9.81627V14.5426C2.43202 14.7355 2.35881 14.9204 2.2285 15.0568C2.09819 15.1932 1.92144 15.2698 1.73715 15.2698H0.347412V9.08914Z" fill="#BEC6C6"/>
<path d="M1.73718 15.6333H0.347435C0.25529 15.6333 0.166918 15.595 0.101761 15.5269C0.0366046 15.4587 0 15.3662 0 15.2698V9.08915C0 8.99273 0.0366046 8.90025 0.101761 8.83207C0.166918 8.76389 0.25529 8.72559 0.347435 8.72559H1.73718C2.01361 8.72559 2.27873 8.8405 2.4742 9.04504C2.66967 9.24959 2.77948 9.52701 2.77948 9.81628V14.5426C2.77948 14.8319 2.66967 15.1093 2.4742 15.3139C2.27873 15.5184 2.01361 15.6333 1.73718 15.6333ZM0.69487 14.9062H1.73718C1.82932 14.9062 1.91769 14.8679 1.98285 14.7997C2.04801 14.7315 2.08461 14.6391 2.08461 14.5426V9.81628C2.08461 9.71986 2.04801 9.62739 1.98285 9.5592C1.91769 9.49102 1.82932 9.45272 1.73718 9.45272H0.69487V14.9062Z" fill="#414141"/>
<path d="M14.2448 11.4487C14.1594 11.4494 14.0768 11.4171 14.0127 11.3581C13.9487 11.2991 13.9076 11.2174 13.8973 11.1288C13.8772 10.9528 13.8195 10.7838 13.7287 10.6342C13.6379 10.4847 13.5161 10.3583 13.3725 10.2645C13.2288 10.1706 13.0668 10.1117 12.8985 10.092C12.7302 10.0724 12.5598 10.0924 12.3999 10.1508L8.93944 11.416C8.85522 11.4386 8.76597 11.4273 8.68931 11.3844C8.61265 11.3415 8.55415 11.2701 8.52535 11.1842C8.49655 11.0984 8.49956 11.0044 8.53376 10.9207C8.56797 10.8371 8.6309 10.7699 8.71013 10.7325L12.1602 9.45273C12.4188 9.35486 12.6953 9.31947 12.9689 9.3492C13.2424 9.37894 13.506 9.47303 13.74 9.62445C13.9739 9.77586 14.172 9.98066 14.3196 10.2235C14.4672 10.4664 14.5604 10.7411 14.5922 11.027C14.6003 11.0793 14.5974 11.133 14.5836 11.184C14.5698 11.2351 14.5455 11.2824 14.5124 11.3226C14.4793 11.3627 14.4382 11.3949 14.3919 11.4167C14.3457 11.4385 14.2955 11.4494 14.2448 11.4487Z" fill="#414141"/>
<path d="M13.2026 0.363556H4.86414V7.63487H13.2026V0.363556Z" fill="#F8F9F9"/>
<path d="M10.0756 0.363556V2.54495L9.03327 2.18139L7.99097 2.54495V0.363556H10.0756Z" fill="#BEC6C6"/>
<path d="M13.2025 7.99845H4.8641C4.77195 7.99845 4.68358 7.96015 4.61842 7.89196C4.55327 7.82378 4.51666 7.73131 4.51666 7.63488V0.363566C4.51666 0.267142 4.55327 0.174668 4.61842 0.106486C4.68358 0.0383041 4.77195 0 4.8641 0H13.2025C13.2947 0 13.3831 0.0383041 13.4482 0.106486C13.5134 0.174668 13.55 0.267142 13.55 0.363566V7.63488C13.55 7.73131 13.5134 7.82378 13.4482 7.89196C13.3831 7.96015 13.2947 7.99845 13.2025 7.99845ZM5.21153 7.27132H12.8551V0.727132H5.21153V7.27132Z" fill="#414141"/>
<path d="M10.0756 2.90853C9.99569 2.90853 10.0513 2.90853 9.0333 2.56314L8.10217 2.89035C8.04983 2.90885 7.99403 2.91402 7.9394 2.90544C7.88477 2.89685 7.83288 2.87476 7.78804 2.84099C7.7432 2.80722 7.7067 2.76275 7.68157 2.71127C7.65645 2.65978 7.64341 2.60277 7.64356 2.54496V0.363566C7.64356 0.267142 7.68016 0.174668 7.74532 0.106486C7.81047 0.0383041 7.89885 0 7.99099 0C8.08314 0 8.17151 0.0383041 8.23666 0.106486C8.30182 0.174668 8.33843 0.267142 8.33843 0.363566V2.0396L8.92212 1.83601C9.07151 1.78511 9.11668 1.83601 9.72817 2.0396V0.363566C9.72817 0.267142 9.76477 0.174668 9.82993 0.106486C9.89508 0.0383041 9.98346 0 10.0756 0C10.1677 0 10.2561 0.0383041 10.3213 0.106486C10.3864 0.174668 10.423 0.267142 10.423 0.363566V2.54496C10.423 2.64138 10.3864 2.73386 10.3213 2.80204C10.2561 2.87022 10.1677 2.90853 10.0756 2.90853Z" fill="#414141"/>
<path d="M7.64355 5.0899H6.25381C6.06192 5.0899 5.90637 5.25268 5.90637 5.45347V6.1806C5.90637 6.38139 6.06192 6.54417 6.25381 6.54417H7.64355C7.83543 6.54417 7.99098 6.38139 7.99098 6.1806V5.45347C7.99098 5.25268 7.83543 5.0899 7.64355 5.0899Z" fill="#6457FF"/>
<path d="M11.8128 3.99923H11.1179C11.0258 3.99923 10.9374 3.96092 10.8723 3.89274C10.8071 3.82456 10.7705 3.73208 10.7705 3.63566C10.7705 3.53924 10.8071 3.44676 10.8723 3.37858C10.9374 3.3104 11.0258 3.27209 11.1179 3.27209H11.8128C11.905 3.27209 11.9933 3.3104 12.0585 3.37858C12.1236 3.44676 12.1602 3.53924 12.1602 3.63566C12.1602 3.73208 12.1236 3.82456 12.0585 3.89274C11.9933 3.96092 11.905 3.99923 11.8128 3.99923Z" fill="#BEC6C6"/>
</svg>
