<svg width="19" height="16" viewBox="0 0 19 16" fill="none" xmlns="http://www.w3.org/2000/svg">
<path d="M4.58952 13.5652H8.13553C8.34452 13.5652 8.54495 13.6385 8.69273 13.769C8.84051 13.8994 8.92353 14.0764 8.92353 14.2609V15.6522H3.80151V14.2609C3.80151 14.0764 3.88454 13.8994 4.03231 13.769C4.18009 13.6385 4.38052 13.5652 4.58952 13.5652Z" fill="#BEC6C6"/>
<path d="M8.13543 10.9565V13.5652H4.58941V12.8696L2.92278 11.6939C2.72919 11.5534 2.59121 11.3621 2.52878 11.1478L1.0434 6.26089L1.40194 6.10437C1.55315 6.03795 1.71874 6.00091 1.88754 5.99574C2.05634 5.99058 2.22443 6.01741 2.38049 6.07443C2.53655 6.13145 2.67696 6.21734 2.79225 6.3263C2.90754 6.43526 2.99505 6.56477 3.04887 6.7061L4.19541 9.73915C4.1619 9.5659 4.1877 9.38776 4.26949 9.22752C4.35128 9.06727 4.48535 8.93221 4.65456 8.83959C4.82377 8.74698 5.02042 8.70103 5.21938 8.70761C5.41833 8.71419 5.61053 8.77301 5.77142 8.87654L7.66263 10.1218C7.80943 10.219 7.92858 10.345 8.01064 10.4899C8.09271 10.6348 8.13543 10.7945 8.13543 10.9565Z" fill="#F8F9F9"/>
<path d="M15.6215 15.6522H10.4994V14.2609C10.4994 14.0764 10.5825 13.8994 10.7302 13.769C10.878 13.6385 11.0784 13.5652 11.2874 13.5652H14.8335C15.0424 13.5652 15.2429 13.6385 15.3907 13.769C15.5384 13.8994 15.6215 14.0764 15.6215 14.2609V15.6522Z" fill="#BEC6C6"/>
<path d="M11.2875 10.9565V13.5652H14.8335V12.8696L16.5001 11.6939C16.6937 11.5534 16.8317 11.3621 16.8941 11.1478L18.3795 6.26089L18.021 6.10437C17.8698 6.03795 17.7042 6.00091 17.5354 5.99574C17.3666 5.99058 17.1985 6.01741 17.0424 6.07443C16.8864 6.13145 16.746 6.21734 16.6307 6.3263C16.5154 6.43526 16.4279 6.56477 16.374 6.7061L15.2275 9.73915C15.261 9.5659 15.2352 9.38776 15.1534 9.22752C15.0716 9.06727 14.9376 8.93221 14.7683 8.83959C14.5991 8.74698 14.4025 8.70103 14.2035 8.70761C14.0046 8.71419 13.8124 8.77301 13.6515 8.87654L11.7603 10.1218C11.6135 10.219 11.4943 10.345 11.4123 10.4899C11.3302 10.6348 11.2875 10.7945 11.2875 10.9565Z" fill="#F8F9F9"/>
<path d="M4.58943 13.913C4.48493 13.913 4.38472 13.8764 4.31083 13.8112C4.23694 13.7459 4.19543 13.6575 4.19543 13.5652V13.0365L2.67852 11.9652C2.41286 11.7805 2.22323 11.5239 2.13874 11.2348L0.649418 6.35131C0.626288 6.274 0.634032 6.19202 0.671348 6.11917C0.708664 6.04631 0.773273 5.98703 0.854299 5.95131L1.21284 5.7913C1.4155 5.70323 1.63725 5.65465 1.86304 5.64884C2.08883 5.64304 2.3134 5.68016 2.52153 5.75767C2.72965 5.83519 2.91647 5.9513 3.06931 6.09813C3.22216 6.24496 3.33747 6.41908 3.40743 6.6087L4.58943 9.62783C4.60598 9.67122 4.6127 9.71707 4.60918 9.76275C4.60567 9.80843 4.592 9.85306 4.56895 9.89408C4.5459 9.9351 4.51392 9.97171 4.47485 10.0018C4.43577 10.0319 4.39036 10.0549 4.34121 10.0696C4.29205 10.0842 4.24012 10.0901 4.18837 10.087C4.13662 10.0839 4.08607 10.0718 4.03961 10.0515C3.99314 10.0311 3.95167 10.0029 3.91757 9.96842C3.88346 9.93392 3.85738 9.89383 3.84083 9.85044L2.67852 6.81739C2.64305 6.72235 2.58477 6.63518 2.50766 6.56183C2.43055 6.48849 2.33642 6.43069 2.23169 6.39239C2.12697 6.35409 2.01412 6.33619 1.90085 6.3399C1.78757 6.34362 1.67654 6.36886 1.57532 6.41391L1.50834 6.44522L2.89916 11.0574C2.94448 11.1964 3.03994 11.3185 3.17102 11.4052L4.83371 12.5843C4.88228 12.6182 4.92114 12.6616 4.94715 12.7112C4.97316 12.7607 4.98559 12.815 4.98343 12.8696V13.5652C4.98343 13.6575 4.94192 13.7459 4.86803 13.8112C4.79414 13.8764 4.69392 13.913 4.58943 13.913Z" fill="#414141"/>
<path d="M8.92349 16H3.80147C3.69698 16 3.59676 15.9634 3.52287 15.8981C3.44898 15.8329 3.40747 15.7444 3.40747 15.6522V14.2609C3.40747 13.9841 3.532 13.7187 3.75367 13.523C3.97534 13.3273 4.27599 13.2174 4.58948 13.2174H8.13549C8.44898 13.2174 8.74962 13.3273 8.97129 13.523C9.19296 13.7187 9.31749 13.9841 9.31749 14.2609V15.6522C9.31749 15.7444 9.27598 15.8329 9.20209 15.8981C9.1282 15.9634 9.02799 16 8.92349 16ZM4.19547 15.3044H8.52949V14.2609C8.52949 14.1686 8.48798 14.0802 8.41409 14.0149C8.3402 13.9497 8.23998 13.9131 8.13549 13.9131H4.58948C4.48498 13.9131 4.38476 13.9497 4.31087 14.0149C4.23698 14.0802 4.19547 14.1686 4.19547 14.2609V15.3044Z" fill="#414141"/>
<path d="M8.13543 13.9131C8.03093 13.9131 7.93072 13.8764 7.85683 13.8112C7.78294 13.7459 7.74143 13.6575 7.74143 13.5652V10.9565C7.74143 10.8485 7.71295 10.742 7.65824 10.6454C7.60353 10.5488 7.52409 10.4648 7.42623 10.4L5.54684 9.15479C5.41936 9.06808 5.25808 9.02963 5.09847 9.04789C4.93887 9.06615 4.79403 9.13964 4.6958 9.25219C4.59758 9.36473 4.55402 9.50711 4.5747 9.64801C4.59539 9.78891 4.67864 9.91678 4.80612 10.0035L6.0157 10.8591C6.08748 10.919 6.13122 11.0004 6.13825 11.0873C6.14528 11.1742 6.11511 11.2603 6.05369 11.3285C5.99226 11.3967 5.90408 11.4421 5.80657 11.4557C5.70907 11.4692 5.60935 11.45 5.52714 11.4018L4.31362 10.5461C4.02878 10.344 3.84513 10.0514 3.80216 9.73105C3.75919 9.41071 3.86034 9.08827 4.08385 8.83308C4.30736 8.57789 4.63539 8.41033 4.99739 8.36642C5.35939 8.32251 5.72645 8.40576 6.01964 8.59827L7.89903 9.84349C8.09476 9.97309 8.25363 10.1411 8.36305 10.3343C8.47247 10.5275 8.52943 10.7405 8.52943 10.9565V13.5652C8.52943 13.6575 8.48792 13.7459 8.41403 13.8112C8.34014 13.8764 8.23992 13.9131 8.13543 13.9131Z" fill="#414141"/>
<path d="M14.8335 13.913C14.729 13.913 14.6287 13.8764 14.5549 13.8112C14.481 13.7459 14.4395 13.6575 14.4395 13.5652V12.8696C14.4397 12.8173 14.4533 12.7658 14.4792 12.7188C14.5052 12.6719 14.5427 12.6306 14.5892 12.5983L16.2519 11.4191C16.383 11.3324 16.4784 11.2103 16.5237 11.0713L17.9146 6.45912L17.8476 6.42782C17.7464 6.38277 17.6353 6.35752 17.522 6.35381C17.4088 6.35009 17.2959 6.368 17.1912 6.4063C17.0865 6.4446 16.9923 6.50239 16.9152 6.57574C16.8381 6.64908 16.7798 6.73625 16.7444 6.8313L15.6215 9.85043C15.588 9.93807 15.5165 10.0104 15.4227 10.0515C15.3288 10.0926 15.2203 10.0991 15.1211 10.0696C15.0218 10.04 14.9399 9.97691 14.8933 9.89407C14.8468 9.81123 14.8394 9.71546 14.8729 9.62782L16.0155 6.60869C16.087 6.41983 16.2037 6.24674 16.3575 6.10111C16.5114 5.95547 16.6988 5.84069 16.9073 5.76452C17.1157 5.68835 17.3402 5.65257 17.5656 5.65959C17.7911 5.66661 18.0122 5.71627 18.214 5.80521L18.5725 5.96521C18.6496 6.00092 18.7112 6.05817 18.7475 6.12802C18.7839 6.19787 18.793 6.27639 18.7735 6.3513L17.296 11.2209C17.2115 11.5099 17.0218 11.7666 16.7562 11.9513L15.2275 13.0365V13.5652C15.2275 13.6575 15.1859 13.7459 15.1121 13.8112C15.0382 13.8764 14.938 13.913 14.8335 13.913Z" fill="#414141"/>
<path d="M15.6215 16H10.4995C10.395 16 10.2948 15.9634 10.2209 15.8981C10.147 15.8329 10.1055 15.7444 10.1055 15.6522V14.2609C10.1055 13.9841 10.23 13.7187 10.4517 13.523C10.6733 13.3273 10.974 13.2174 11.2875 13.2174H14.8335C15.147 13.2174 15.4476 13.3273 15.6693 13.523C15.891 13.7187 16.0155 13.9841 16.0155 14.2609V15.6522C16.0155 15.7444 15.974 15.8329 15.9001 15.8981C15.8262 15.9634 15.726 16 15.6215 16ZM10.8935 15.3044H15.2275V14.2609C15.2275 14.1686 15.186 14.0802 15.1121 14.0149C15.0382 13.9497 14.938 13.9131 14.8335 13.9131H11.2875C11.183 13.9131 11.0828 13.9497 11.0089 14.0149C10.935 14.0802 10.8935 14.1686 10.8935 14.2609V15.3044Z" fill="#414141"/>
<path d="M11.2874 13.9131C11.1829 13.9131 11.0827 13.8764 11.0088 13.8112C10.9349 13.7459 10.8934 13.6575 10.8934 13.5652V10.9565C10.8934 10.7405 10.9504 10.5275 11.0598 10.3343C11.1692 10.1411 11.3281 9.97309 11.5238 9.84349L13.4032 8.59827C13.6964 8.40576 14.0635 8.32251 14.4255 8.36642C14.7875 8.41033 15.1155 8.57789 15.339 8.83308C15.5625 9.08827 15.6637 9.41071 15.6207 9.73105C15.5777 10.0514 15.3941 10.344 15.1092 10.5461L13.8957 11.4018C13.8135 11.45 13.7138 11.4692 13.6163 11.4557C13.5188 11.4421 13.4306 11.3967 13.3692 11.3285C13.3078 11.2603 13.2776 11.1742 13.2846 11.0873C13.2916 11.0004 13.3354 10.919 13.4072 10.8591L14.6167 10.0035C14.742 9.9176 14.8235 9.79136 14.8435 9.65247C14.8634 9.51358 14.8201 9.37338 14.7231 9.26262C14.6267 9.14946 14.4835 9.0746 14.3248 9.0544C14.166 9.03419 14.0047 9.07029 13.876 9.15479L11.9966 10.4C11.8988 10.4648 11.8193 10.5488 11.7646 10.6454C11.7099 10.742 11.6814 10.8485 11.6814 10.9565V13.5652C11.6814 13.6575 11.6399 13.7459 11.566 13.8112C11.4921 13.8764 11.3919 13.9131 11.2874 13.9131Z" fill="#414141"/>
<path d="M14.4395 0.347839H4.98346V7.30436H14.4395V0.347839Z" fill="#F8F9F9"/>
<path d="M10.8935 0.347839V2.4348L9.71148 2.08697L8.52948 2.4348V0.347839H10.8935Z" fill="#BEC6C6"/>
<path d="M14.4395 7.65217H4.98348C4.87898 7.65217 4.77877 7.61553 4.70488 7.5503C4.63099 7.48507 4.58948 7.3966 4.58948 7.30435V0.347826C4.58948 0.255577 4.63099 0.167106 4.70488 0.101876C4.77877 0.0366458 4.87898 0 4.98348 0H14.4395C14.544 0 14.6442 0.0366458 14.7181 0.101876C14.792 0.167106 14.8335 0.255577 14.8335 0.347826V7.30435C14.8335 7.3966 14.792 7.48507 14.7181 7.5503C14.6442 7.61553 14.544 7.65217 14.4395 7.65217ZM5.37748 6.95652H14.0455V0.695652H5.37748V6.95652Z" fill="#414141"/>
<path d="M10.8935 2.78261C10.8028 2.78261 10.8659 2.78261 9.71145 2.45217L8.65552 2.78261C8.59456 2.80088 8.52945 2.80568 8.4659 2.79659C8.40235 2.7875 8.34229 2.76481 8.29097 2.73049C8.23965 2.69617 8.19864 2.65127 8.17153 2.59972C8.14442 2.54817 8.13203 2.49154 8.13544 2.43478V0.347826C8.13544 0.255577 8.17695 0.167106 8.25084 0.101876C8.32473 0.0366458 8.42495 0 8.52944 0C8.63394 0 8.73416 0.0366458 8.80805 0.101876C8.88193 0.167106 8.92345 0.255577 8.92345 0.347826V1.9513L9.58537 1.75652C9.75479 1.70783 9.80601 1.75652 10.4995 1.9513V0.347826C10.4995 0.255577 10.541 0.167106 10.6149 0.101876C10.6887 0.0366458 10.789 0 10.8935 0C10.9979 0 11.0982 0.0366458 11.1721 0.101876C11.2459 0.167106 11.2875 0.255577 11.2875 0.347826V2.43478C11.2875 2.52703 11.2459 2.6155 11.1721 2.68073C11.0982 2.74596 10.9979 2.78261 10.8935 2.78261Z" fill="#414141"/>
<path d="M8.13541 4.86957H6.55941C6.34181 4.86957 6.16541 5.0253 6.16541 5.21739V5.91305C6.16541 6.10515 6.34181 6.26087 6.55941 6.26087H8.13541C8.35301 6.26087 8.52941 6.10515 8.52941 5.91305V5.21739C8.52941 5.0253 8.35301 4.86957 8.13541 4.86957Z" fill="#6457FF"/>
<path d="M12.8635 3.82608H12.0755C11.971 3.82608 11.8708 3.78944 11.7969 3.72421C11.723 3.65898 11.6815 3.57051 11.6815 3.47826C11.6815 3.38601 11.723 3.29754 11.7969 3.23231C11.8708 3.16708 11.971 3.13043 12.0755 3.13043H12.8635C12.968 3.13043 13.0682 3.16708 13.1421 3.23231C13.216 3.29754 13.2575 3.38601 13.2575 3.47826C13.2575 3.57051 13.216 3.65898 13.1421 3.72421C13.0682 3.78944 12.968 3.82608 12.8635 3.82608Z" fill="#BEC6C6"/>
</svg>
