<svg width="16" height="16" viewBox="0 0 16 16" fill="none" xmlns="http://www.w3.org/2000/svg">
<path d="M7.99943 14.2608H6.60803V0.694651L7.30373 0.346802L7.99943 0.694651V14.2608Z" fill="#F8F9F9"/>
<path d="M4.52102 14.2607H9.3909V15.6521H3.82532V14.9564C3.82532 14.7719 3.89861 14.595 4.02908 14.4645C4.15955 14.334 4.3365 14.2607 4.52102 14.2607Z" fill="#BEC6C6"/>
<path d="M10.7823 7.99948H7.99951V5.91238H10.7823L11.478 6.95593L10.7823 7.99948Z" fill="#F8F9F9"/>
<path d="M1.0425 9.39089H6.60808V6.60809H1.0425L0.346802 7.99949L1.0425 9.39089Z" fill="#F8F9F9"/>
<path d="M15.6522 10.0865H9.39087V15.6521H15.6522V10.0865Z" fill="#F8F9F9"/>
<path d="M15.6521 16H9.39082C9.29856 16 9.21009 15.9633 9.14485 15.8981C9.07962 15.8329 9.04297 15.7444 9.04297 15.6521V10.0866C9.04297 9.9943 9.07962 9.90583 9.14485 9.84059C9.21009 9.77536 9.29856 9.73871 9.39082 9.73871H15.6521C15.7444 9.73871 15.8328 9.77536 15.8981 9.84059C15.9633 9.90583 15.9999 9.9943 15.9999 10.0866V15.6521C15.9999 15.7444 15.9633 15.8329 15.8981 15.8981C15.8328 15.9633 15.7444 16 15.6521 16ZM9.73867 15.3043H15.3043V10.4344H9.73867V15.3043Z" fill="#414141"/>
<path d="M14.6086 11.1301H10.4344V14.6086H14.6086V11.1301Z" fill="#6457FF"/>
<path d="M14.6086 11.1301V11.5823L10.9771 14.6086H10.4344V14.1564L14.066 11.1301H14.6086Z" fill="#F8F9F9"/>
<path d="M7.99944 14.6086H6.60804C6.51579 14.6086 6.42731 14.572 6.36208 14.5067C6.29684 14.4415 6.26019 14.353 6.26019 14.2608V0.694645C6.26039 0.630408 6.27837 0.56748 6.31213 0.512836C6.3459 0.458192 6.39414 0.413965 6.45151 0.385059L7.14721 0.0372099C7.19576 0.0127442 7.24937 0 7.30374 0C7.35811 0 7.41172 0.0127442 7.46027 0.0372099L8.15597 0.385059C8.21334 0.413965 8.26158 0.458192 8.29535 0.512836C8.32911 0.56748 8.34709 0.630408 8.34729 0.694645V14.2608C8.34729 14.353 8.31064 14.4415 8.2454 14.5067C8.18017 14.572 8.09169 14.6086 7.99944 14.6086ZM6.95589 13.9129H7.65159V0.910311L7.30374 0.736386L6.95589 0.910311V13.9129Z" fill="#414141"/>
<path d="M9.39085 16H3.82527C3.73301 16 3.64453 15.9633 3.5793 15.8981C3.51407 15.8329 3.47742 15.7444 3.47742 15.6521V14.9564C3.47742 14.6797 3.58736 14.4143 3.78306 14.2186C3.97877 14.0228 4.2442 13.9129 4.52096 13.9129H9.39085C9.48311 13.9129 9.57158 13.9496 9.63682 14.0148C9.70205 14.08 9.7387 14.1685 9.7387 14.2608V15.6521C9.7387 15.7444 9.70205 15.8329 9.63682 15.8981C9.57158 15.9633 9.48311 16 9.39085 16ZM4.17312 15.3043H9.043V14.6086H4.52096C4.42871 14.6086 4.34023 14.6452 4.275 14.7105C4.20976 14.7757 4.17312 14.8642 4.17312 14.9564V15.3043Z" fill="#414141"/>
<path d="M10.7823 8.34731H7.99946C7.90721 8.34731 7.81873 8.31066 7.75349 8.24542C7.68826 8.18019 7.65161 8.09171 7.65161 7.99946V5.91236C7.65161 5.82011 7.68826 5.73163 7.75349 5.6664C7.81873 5.60116 7.90721 5.56451 7.99946 5.56451H10.7823C10.8395 5.56481 10.8959 5.57925 10.9462 5.60656C10.9966 5.63387 11.0395 5.6732 11.071 5.72105L11.7667 6.76459C11.8041 6.82139 11.824 6.8879 11.824 6.95591C11.824 7.02392 11.8041 7.09043 11.7667 7.14723L11.071 8.19077C11.0395 8.23862 10.9966 8.27795 10.9462 8.30526C10.8959 8.33257 10.8395 8.34701 10.7823 8.34731ZM8.34731 7.65161H10.5944L11.0605 6.95591L10.5944 6.26021H8.34731V7.65161Z" fill="#414141"/>
<path d="M6.60808 9.73871H1.04249C0.978257 9.73852 0.915329 9.72054 0.860685 9.68677C0.806041 9.653 0.761814 9.60476 0.732908 9.5474L0.0372099 8.156C0.0127442 8.10745 0 8.05384 0 7.99947C0 7.9451 0.0127442 7.89149 0.0372099 7.84294L0.732908 6.45154C0.761814 6.39417 0.806041 6.34593 0.860685 6.31217C0.915329 6.2784 0.978257 6.26042 1.04249 6.26022H6.60808C6.70033 6.26022 6.78881 6.29687 6.85404 6.36211C6.91928 6.42734 6.95593 6.51582 6.95593 6.60807V9.39086C6.95593 9.48312 6.91928 9.5716 6.85404 9.63683C6.78881 9.70207 6.70033 9.73871 6.60808 9.73871ZM1.25816 9.04302H6.26023V6.95592H1.25816L0.736386 7.99947L1.25816 9.04302Z" fill="#414141"/>
<path d="M13.5651 4.52098H4.521V1.73819H13.5651L14.2608 3.12959L13.5651 4.52098Z" fill="#BEC6C6"/>
<path d="M13.565 4.86881H4.52094C4.42869 4.86881 4.34021 4.83216 4.27498 4.76693C4.20974 4.70169 4.1731 4.61322 4.1731 4.52096V1.73817C4.1731 1.64591 4.20974 1.55744 4.27498 1.4922C4.34021 1.42697 4.42869 1.39032 4.52094 1.39032H13.565C13.6293 1.39051 13.6922 1.40849 13.7468 1.44226C13.8015 1.47603 13.8457 1.52427 13.8746 1.58164L14.5703 2.97303C14.5948 3.02159 14.6075 3.0752 14.6075 3.12956C14.6075 3.18393 14.5948 3.23754 14.5703 3.2861L13.8746 4.67749C13.8457 4.73486 13.8015 4.7831 13.7468 4.81687C13.6922 4.85064 13.6293 4.86861 13.565 4.86881ZM4.86879 4.17311H13.3494L13.8711 3.12956L13.3494 2.08602H4.86879V4.17311Z" fill="#414141"/>
</svg>
