<svg width="30" height="33" viewBox="0 0 30 33" fill="none" xmlns="http://www.w3.org/2000/svg">
<path d="M27.8571 0.717499H10.7143C9.9253 0.717499 9.28571 1.35987 9.28571 2.15228V27.9784C9.28571 28.7708 9.9253 29.4132 10.7143 29.4132H27.8571C28.6461 29.4132 29.2857 28.7708 29.2857 27.9784V2.15228C29.2857 1.35987 28.6461 0.717499 27.8571 0.717499Z" fill="#BEC6C6"/>
<path d="M26.4286 2.86969H12.1429C11.7484 2.86969 11.4286 3.19088 11.4286 3.58708V9.32621C11.4286 9.72242 11.7484 10.0436 12.1429 10.0436H26.4286C26.8231 10.0436 27.1429 9.72242 27.1429 9.32621V3.58708C27.1429 3.19088 26.8231 2.86969 26.4286 2.86969Z" fill="#F8F9F9"/>
<path d="M13.5714 11.4782H12.1429C11.7484 11.4782 11.4286 11.7994 11.4286 12.1956V13.6304C11.4286 14.0266 11.7484 14.3477 12.1429 14.3477H13.5714C13.9659 14.3477 14.2857 14.0266 14.2857 13.6304V12.1956C14.2857 11.7994 13.9659 11.4782 13.5714 11.4782Z" fill="#F8F9F9"/>
<path d="M17.8572 11.4782H16.4286C16.0342 11.4782 15.7144 11.7994 15.7144 12.1956V13.6304C15.7144 14.0266 16.0342 14.3477 16.4286 14.3477H17.8572C18.2517 14.3477 18.5715 14.0266 18.5715 13.6304V12.1956C18.5715 11.7994 18.2517 11.4782 17.8572 11.4782Z" fill="#F8F9F9"/>
<path d="M22.143 11.4782H20.7144C20.3199 11.4782 20.0001 11.7994 20.0001 12.1956V13.6304C20.0001 14.0266 20.3199 14.3477 20.7144 14.3477H22.143C22.5375 14.3477 22.8572 14.0266 22.8572 13.6304V12.1956C22.8572 11.7994 22.5375 11.4782 22.143 11.4782Z" fill="#F8F9F9"/>
<path d="M26.4286 11.4782H25C24.6055 11.4782 24.2858 11.7994 24.2858 12.1956V13.6304C24.2858 14.0266 24.6055 14.3477 25 14.3477H26.4286C26.8231 14.3477 27.1429 14.0266 27.1429 13.6304V12.1956C27.1429 11.7994 26.8231 11.4782 26.4286 11.4782Z" fill="#F8F9F9"/>
<path d="M13.5714 15.7825H12.1429C11.7484 15.7825 11.4286 16.1037 11.4286 16.4999V17.9347C11.4286 18.3309 11.7484 18.6521 12.1429 18.6521H13.5714C13.9659 18.6521 14.2857 18.3309 14.2857 17.9347V16.4999C14.2857 16.1037 13.9659 15.7825 13.5714 15.7825Z" fill="#F8F9F9"/>
<path d="M17.8572 15.7825H16.4286C16.0342 15.7825 15.7144 16.1037 15.7144 16.4999V17.9347C15.7144 18.3309 16.0342 18.6521 16.4286 18.6521H17.8572C18.2517 18.6521 18.5715 18.3309 18.5715 17.9347V16.4999C18.5715 16.1037 18.2517 15.7825 17.8572 15.7825Z" fill="#F8F9F9"/>
<path d="M22.143 15.7825H20.7144C20.3199 15.7825 20.0001 16.1037 20.0001 16.4999V17.9347C20.0001 18.3309 20.3199 18.6521 20.7144 18.6521H22.143C22.5375 18.6521 22.8572 18.3309 22.8572 17.9347V16.4999C22.8572 16.1037 22.5375 15.7825 22.143 15.7825Z" fill="#F8F9F9"/>
<path d="M26.4286 15.7825H25C24.6055 15.7825 24.2858 16.1037 24.2858 16.4999V17.9347C24.2858 18.3309 24.6055 18.6521 25 18.6521H26.4286C26.8231 18.6521 27.1429 18.3309 27.1429 17.9347V16.4999C27.1429 16.1037 26.8231 15.7825 26.4286 15.7825Z" fill="#F8F9F9"/>
<path d="M22.143 20.0869H20.7144C20.3199 20.0869 20.0001 20.408 20.0001 20.8042V22.239C20.0001 22.6352 20.3199 22.9564 20.7144 22.9564H22.143C22.5375 22.9564 22.8572 22.6352 22.8572 22.239V20.8042C22.8572 20.408 22.5375 20.0869 22.143 20.0869Z" fill="#F8F9F9"/>
<path d="M22.143 24.3912H20.7144C20.3199 24.3912 20.0001 24.7124 20.0001 25.1086V26.5434C20.0001 26.9396 20.3199 27.2608 20.7144 27.2608H22.143C22.5375 27.2608 22.8572 26.9396 22.8572 26.5434V25.1086C22.8572 24.7124 22.5375 24.3912 22.143 24.3912Z" fill="#F8F9F9"/>
<path d="M26.4286 20.0869H25C24.6055 20.0869 24.2858 20.408 24.2858 20.8042V26.5434C24.2858 26.9396 24.6055 27.2608 25 27.2608H26.4286C26.8231 27.2608 27.1429 26.9396 27.1429 26.5434V20.8042C27.1429 20.408 26.8231 20.0869 26.4286 20.0869Z" fill="#F8F9F9"/>
<path d="M27.8571 30.1304H10.7143C10.1459 30.1304 9.6009 29.9037 9.19904 29.5001C8.79718 29.0965 8.57141 28.549 8.57141 27.9783V2.15217C8.57141 1.58138 8.79718 1.03397 9.19904 0.630357C9.6009 0.226746 10.1459 0 10.7143 0H27.8571C28.4255 0 28.9705 0.226746 29.3724 0.630357C29.7742 1.03397 30 1.58138 30 2.15217V27.9783C30 28.549 29.7742 29.0965 29.3724 29.5001C28.9705 29.9037 28.4255 30.1304 27.8571 30.1304ZM10.7143 1.43478C10.5248 1.43478 10.3431 1.51036 10.2092 1.6449C10.0752 1.77944 9.99998 1.96191 9.99998 2.15217V27.9783C9.99998 28.1685 10.0752 28.351 10.2092 28.4855C10.3431 28.6201 10.5248 28.6956 10.7143 28.6956H27.8571C28.0466 28.6956 28.2283 28.6201 28.3622 28.4855C28.4962 28.351 28.5714 28.1685 28.5714 27.9783V2.15217C28.5714 1.96191 28.4962 1.77944 28.3622 1.6449C28.2283 1.51036 28.0466 1.43478 27.8571 1.43478H10.7143Z" fill="#414141"/>
<path d="M17.8572 17.9347H0.71434V32.2825H17.8572V17.9347Z" fill="#F8F9F9"/>
<path d="M11.4285 17.9347V22.239L9.28568 21.5216L7.14282 22.239V17.9347H11.4285Z" fill="#BEC6C6"/>
<path d="M17.8571 33.0001H0.714286C0.524846 33.0001 0.343164 32.9245 0.209209 32.79C0.0752549 32.6555 0 32.473 0 32.2827V17.9349C0 17.7446 0.0752549 17.5622 0.209209 17.4276C0.343164 17.2931 0.524846 17.2175 0.714286 17.2175H17.8571C18.0466 17.2175 18.2283 17.2931 18.3622 17.4276C18.4962 17.5622 18.5714 17.7446 18.5714 17.9349V32.2827C18.5714 32.473 18.4962 32.6555 18.3622 32.79C18.2283 32.9245 18.0466 33.0001 17.8571 33.0001ZM1.42857 31.5653H17.1429V18.6523H1.42857V31.5653Z" fill="#414141"/>
<path d="M11.4286 22.9566C11.2643 22.9566 11.3357 22.9566 9.28575 22.2392L7.37146 22.8849C7.26667 22.9206 7.15506 22.9313 7.04542 22.9163C6.93579 22.9012 6.83114 22.8608 6.73972 22.7982C6.64829 22.7356 6.5726 22.6525 6.51861 22.5555C6.46462 22.4585 6.43381 22.3502 6.4286 22.2392V17.9349C6.4286 17.7446 6.50386 17.5622 6.63781 17.4276C6.77177 17.2931 6.95345 17.2175 7.14289 17.2175C7.33233 17.2175 7.51401 17.2931 7.64797 17.4276C7.78192 17.5622 7.85718 17.7446 7.85718 17.9349V21.2421L9.05718 20.8403C9.35003 20.7471 9.43575 20.8403 10.7143 21.2421V17.9349C10.7143 17.7446 10.7896 17.5622 10.9235 17.4276C11.0575 17.2931 11.2392 17.2175 11.4286 17.2175C11.618 17.2175 11.7997 17.2931 11.9337 17.4276C12.0676 17.5622 12.1429 17.7446 12.1429 17.9349V22.2392C12.1429 22.4295 12.0676 22.612 11.9337 22.7465C11.7997 22.881 11.618 22.9566 11.4286 22.9566Z" fill="#414141"/>
<path d="M6.42856 27.261H3.57142C3.17693 27.261 2.85713 27.5821 2.85713 27.9783V29.4131C2.85713 29.8093 3.17693 30.1305 3.57142 30.1305H6.42856C6.82305 30.1305 7.14285 29.8093 7.14285 29.4131V27.9783C7.14285 27.5821 6.82305 27.261 6.42856 27.261Z" fill="#6457FF"/>
<path d="M15 25.1087H13.5714C13.382 25.1087 13.2003 25.0331 13.0663 24.8986C12.9324 24.764 12.8571 24.5815 12.8571 24.3913C12.8571 24.201 12.9324 24.0185 13.0663 23.884C13.2003 23.7495 13.382 23.6739 13.5714 23.6739H15C15.1894 23.6739 15.3711 23.7495 15.5051 23.884C15.639 24.0185 15.7143 24.201 15.7143 24.3913C15.7143 24.5815 15.639 24.764 15.5051 24.8986C15.3711 25.0331 15.1894 25.1087 15 25.1087Z" fill="#BEC6C6"/>
</svg>
