<svg width="46" height="36" viewBox="0 0 46 36" fill="none" xmlns="http://www.w3.org/2000/svg">
<path d="M27 1H5V5H27V1Z" fill="#BEC6C6"/>
<path d="M43 19H35V27H43V19Z" fill="#BEC6C6"/>
<path d="M35 7H31V31H35V7Z" fill="#F8F9F9"/>
<path d="M25 25L27 18L31 17V31H25V25Z" fill="#BEC6C6"/>
<path d="M31 32H25C24.7348 32 24.4804 31.8946 24.2929 31.7071C24.1054 31.5196 24 31.2652 24 31C24 24.44 24 24.92 24 24.73L26 17.73C26.0476 17.5602 26.1393 17.406 26.2658 17.2831C26.3922 17.1601 26.5489 17.0728 26.72 17.03L30.72 16.03C30.8698 15.9863 31.0279 15.9783 31.1814 16.0066C31.3349 16.0349 31.4796 16.0987 31.604 16.193C31.7284 16.2873 31.829 16.4094 31.8978 16.5495C31.9666 16.6896 32.0016 16.8439 32 17V31C32 31.2652 31.8946 31.5196 31.7071 31.7071C31.5196 31.8946 31.2652 32 31 32ZM26 30H30V18.28L27.8 18.83L26 25.14V30Z" fill="#414141"/>
<path d="M15 20H10V11H11.4C11.8552 11.0007 12.2965 11.1567 12.651 11.4422C13.0056 11.7276 13.2521 12.1255 13.35 12.57L15 20Z" fill="#6457FF"/>
<path d="M12 20L15 25H21V22C21 21.4696 20.7893 20.9609 20.4142 20.5858C20.0391 20.2107 19.5304 20 19 20H12Z" fill="#6457FF"/>
<path d="M35 32H31C30.7348 32 30.4804 31.8946 30.2929 31.7071C30.1054 31.5196 30 31.2652 30 31V7C30 6.73478 30.1054 6.48043 30.2929 6.29289C30.4804 6.10536 30.7348 6 31 6H35C35.2652 6 35.5196 6.10536 35.7071 6.29289C35.8946 6.48043 36 6.73478 36 7V31C36 31.2652 35.8946 31.5196 35.7071 31.7071C35.5196 31.8946 35.2652 32 35 32ZM32 30H34V8H32V30Z" fill="#414141"/>
<path d="M45 28H35C34.7348 28 34.4804 27.8946 34.2929 27.7071C34.1054 27.5196 34 27.2652 34 27C34 26.7348 34.1054 26.4804 34.2929 26.2929C34.4804 26.1054 34.7348 26 35 26H45C45.2652 26 45.5196 26.1054 45.7071 26.2929C45.8946 26.4804 46 26.7348 46 27C46 27.2652 45.8946 27.5196 45.7071 27.7071C45.5196 27.8946 45.2652 28 45 28Z" fill="#414141"/>
<path d="M43 28H35C34.7348 28 34.4804 27.8946 34.2929 27.7071C34.1054 27.5196 34 27.2652 34 27V19C34 18.7348 34.1054 18.4804 34.2929 18.2929C34.4804 18.1054 34.7348 18 35 18H43C43.2652 18 43.5196 18.1054 43.7071 18.2929C43.8946 18.4804 44 18.7348 44 19V27C44 27.2652 43.8946 27.5196 43.7071 27.7071C43.5196 27.8946 43.2652 28 43 28ZM36 26H42V20H36V26Z" fill="#414141"/>
<path d="M40 20H38V22H40V20Z" fill="#F8F9F9"/>
<path d="M27 25V31H2C1.73478 31 1.48043 30.8946 1.29289 30.7071C1.10536 30.5196 1 30.2652 1 30V21.42L1.29 20.71C2.85 19.15 2.9 19 3.42 19H11L15 25H27Z" fill="#F8F9F9"/>
<path d="M3 25H1C0.734784 25 0.48043 24.8946 0.292893 24.7071C0.105357 24.5196 0 24.2652 0 24C0 23.7348 0.105357 23.4804 0.292893 23.2929C0.48043 23.1054 0.734784 23 1 23H3C3.26522 23 3.51957 23.1054 3.70711 23.2929C3.89464 23.4804 4 23.7348 4 24C4 24.2652 3.89464 24.5196 3.70711 24.7071C3.51957 24.8946 3.26522 25 3 25Z" fill="#BEC6C6"/>
<path d="M27 32H2C1.46957 32 0.960859 31.7893 0.585786 31.4142C0.210714 31.0391 0 30.5304 0 30C0 20.62 4.47035e-08 21.3 0.08 21C0.54 19.87 0.18 20.37 2.01 18.54C2.39139 18.1827 2.8975 17.9889 3.42 18H9.93C10.4249 17.9998 10.9122 18.1221 11.3484 18.3559C11.7846 18.5897 12.1562 18.9278 12.43 19.34L15.54 24H27C27.2652 24 27.5196 24.1054 27.7071 24.2929C27.8946 24.4804 28 24.7348 28 25V31C28 31.2652 27.8946 31.5196 27.7071 31.7071C27.5196 31.8946 27.2652 32 27 32ZM2 21.62V30H26V26H15C14.8353 25.9991 14.6733 25.9576 14.5285 25.8791C14.3838 25.8006 14.2606 25.6876 14.17 25.55L10.76 20.45C10.6694 20.3124 10.5462 20.1994 10.4015 20.1209C10.2567 20.0424 10.0947 20.0008 9.93 20H3.42C1.93 21.48 2.19 21.16 2 21.62Z" fill="#414141"/>
<path d="M8 35C10.2091 35 12 33.2091 12 31C12 28.7909 10.2091 27 8 27C5.79086 27 4 28.7909 4 31C4 33.2091 5.79086 35 8 35Z" fill="#BEC6C6"/>
<path d="M27 35C29.7614 35 32 32.7614 32 30C32 27.2386 29.7614 25 27 25C24.2386 25 22 27.2386 22 30C22 32.7614 24.2386 35 27 35Z" fill="#BEC6C6"/>
<path d="M8 36C7.0111 36 6.0444 35.7068 5.22215 35.1574C4.39991 34.6079 3.75904 33.8271 3.3806 32.9134C3.00217 31.9998 2.90315 30.9945 3.09608 30.0245C3.289 29.0546 3.76521 28.1637 4.46447 27.4645C5.16373 26.7652 6.05465 26.289 7.02455 26.0961C7.99446 25.9031 8.99979 26.0022 9.91342 26.3806C10.827 26.759 11.6079 27.3999 12.1573 28.2222C12.7068 29.0444 13 30.0111 13 31C13 31.6566 12.8707 32.3068 12.6194 32.9134C12.3681 33.52 11.9998 34.0712 11.5355 34.5355C11.0712 34.9998 10.52 35.3681 9.91342 35.6194C9.30679 35.8707 8.65661 36 8 36ZM8 28C7.40666 28 6.82664 28.176 6.33329 28.5056C5.83994 28.8352 5.45543 29.3038 5.22836 29.852C5.0013 30.4001 4.94189 31.0033 5.05765 31.5853C5.1734 32.1672 5.45912 32.7018 5.87868 33.1213C6.29824 33.5409 6.83279 33.8266 7.41473 33.9424C7.99667 34.0581 8.59987 33.9987 9.14805 33.7716C9.69623 33.5446 10.1648 33.1601 10.4944 32.6667C10.8241 32.1734 11 31.5933 11 31C11 30.2044 10.6839 29.4413 10.1213 28.8787C9.55871 28.3161 8.79565 28 8 28Z" fill="#414141"/>
<path d="M8 32C8.55228 32 9 31.5523 9 31C9 30.4477 8.55228 30 8 30C7.44772 30 7 30.4477 7 31C7 31.5523 7.44772 32 8 32Z" fill="#F8F9F9"/>
<path d="M27 36C25.8133 36 24.6533 35.6481 23.6666 34.9888C22.6799 34.3295 21.9109 33.3925 21.4567 32.2961C21.0026 31.1997 20.8838 29.9933 21.1153 28.8295C21.3468 27.6656 21.9182 26.5965 22.7574 25.7574C23.5965 24.9182 24.6656 24.3468 25.8295 24.1153C26.9933 23.8838 28.1997 24.0026 29.2961 24.4567C30.3925 24.9109 31.3295 25.6799 31.9888 26.6666C32.6481 27.6533 33 28.8133 33 30C33 31.5913 32.3679 33.1174 31.2426 34.2426C30.1174 35.3679 28.5913 36 27 36ZM27 26C26.2089 26 25.4355 26.2346 24.7777 26.6741C24.1199 27.1137 23.6072 27.7384 23.3045 28.4693C23.0017 29.2002 22.9225 30.0044 23.0769 30.7804C23.2312 31.5563 23.6122 32.269 24.1716 32.8284C24.731 33.3878 25.4437 33.7688 26.2196 33.9231C26.9956 34.0775 27.7998 33.9983 28.5307 33.6955C29.2616 33.3928 29.8864 32.8801 30.3259 32.2223C30.7654 31.5645 31 30.7911 31 30C31 28.9391 30.5786 27.9217 29.8284 27.1716C29.0783 26.4214 28.0609 26 27 26Z" fill="#414141"/>
<path d="M27 31C27.5523 31 28 30.5523 28 30C28 29.4477 27.5523 29 27 29C26.4477 29 26 29.4477 26 30C26 30.5523 26.4477 31 27 31Z" fill="#F8F9F9"/>
<path d="M23 18C22.8014 18.0012 22.6069 17.9431 22.4414 17.8333C22.2759 17.7235 22.1468 17.5669 22.0706 17.3835C21.9945 17.2 21.9747 16.9981 22.0137 16.8033C22.0528 16.6086 22.149 16.4299 22.29 16.29L25.29 13.29C25.4783 13.1017 25.7337 12.9959 26 12.9959C26.2663 12.9959 26.5217 13.1017 26.71 13.29C26.8983 13.4783 27.0041 13.7337 27.0041 14C27.0041 14.2663 26.8983 14.5217 26.71 14.71L23.71 17.71C23.6166 17.8027 23.5057 17.876 23.3839 17.9258C23.2621 17.9755 23.1316 18.0008 23 18Z" fill="#414141"/>
<path d="M27 19C26.8684 19.0008 26.7379 18.9755 26.6161 18.9258C26.4943 18.876 26.3834 18.8027 26.29 18.71L23.79 16.21C23.6017 16.0217 23.4959 15.7663 23.4959 15.5C23.4959 15.2337 23.6017 14.9783 23.79 14.79C23.9783 14.6017 24.2337 14.4959 24.5 14.4959C24.7663 14.4959 25.0217 14.6017 25.21 14.79L27.71 17.29C27.851 17.4299 27.9472 17.6086 27.9863 17.8033C28.0254 17.9981 28.0055 18.2 27.9294 18.3835C27.8532 18.5669 27.7241 18.7235 27.5586 18.8333C27.3931 18.9431 27.1986 19.0012 27 19Z" fill="#414141"/>
<path d="M7 20C6.73478 20 6.48043 19.8946 6.29289 19.7071C6.10536 19.5196 6 19.2652 6 19V5C6 4.73478 6.10536 4.48043 6.29289 4.29289C6.48043 4.10536 6.73478 4 7 4H25C25.1847 4.00056 25.3656 4.05224 25.5227 4.14932C25.6798 4.2464 25.8069 4.38509 25.89 4.55L31.89 16.55C31.9871 16.7831 31.9924 17.0443 31.9048 17.2811C31.8173 17.5179 31.6434 17.7129 31.4181 17.8268C31.1927 17.9408 30.9326 17.9652 30.69 17.8953C30.4474 17.8254 30.2402 17.6663 30.11 17.45L24.38 6H8V19C8 19.2652 7.89464 19.5196 7.70711 19.7071C7.51957 19.8946 7.26522 20 7 20Z" fill="#414141"/>
<path d="M27 6H5C4.73478 6 4.48043 5.89464 4.29289 5.70711C4.10536 5.51957 4 5.26522 4 5V1C4 0.734784 4.10536 0.48043 4.29289 0.292893C4.48043 0.105357 4.73478 0 5 0H27C27.2652 0 27.5196 0.105357 27.7071 0.292893C27.8946 0.48043 28 0.734784 28 1V5C28 5.26522 27.8946 5.51957 27.7071 5.70711C27.5196 5.89464 27.2652 6 27 6ZM6 4H26V2H6V4Z" fill="#414141"/>
</svg>
