<svg width="38" height="38" viewBox="0 0 38 38" fill="none" xmlns="http://www.w3.org/2000/svg">
<path d="M36.4167 20.5833C33.9387 24.9296 33.4479 26.9167 32.4583 30.875H6.33333C5.88784 28.5019 5.19259 26.1826 4.25917 23.9558C3.52176 22.225 2.62601 20.566 1.58333 19H15.0417L19 20.5833H36.4167Z" fill="#F8F9F9"/>
<path d="M13.4583 12.6667H3.95833V19H13.4583V12.6667Z" fill="#BEC6C6"/>
<path d="M11.0833 7.91668V12.6667H6.33333V7.91668C6.33333 7.49675 6.50015 7.09402 6.79708 6.79709C7.09401 6.50016 7.49674 6.33334 7.91667 6.33334H9.5C9.91993 6.33334 10.3227 6.50016 10.6196 6.79709C10.9165 7.09402 11.0833 7.49675 11.0833 7.91668Z" fill="#F8F9F9"/>
<path d="M21.375 1.58334V3.95834L11.0833 9.50001V7.91668C11.0833 7.49675 10.9165 7.09402 10.6196 6.79709C10.3227 6.50016 9.91993 6.33334 9.5 6.33334H7.91667L21.375 1.58334Z" fill="#BEC6C6"/>
<path d="M32.4594 31.6667H6.33441C6.1514 31.6712 5.97251 31.6121 5.82816 31.4995C5.68382 31.3869 5.58296 31.2278 5.54274 31.0492L5.20232 29.4659C4.40705 25.8877 2.95774 22.4872 0.927324 19.4354C0.84891 19.3164 0.804104 19.1783 0.797638 19.0359C0.791171 18.8935 0.823283 18.752 0.890584 18.6263C0.957885 18.5006 1.05788 18.3954 1.18 18.3219C1.30212 18.2483 1.44184 18.2091 1.58441 18.2083C15.9611 18.2083 15.1298 18.2083 15.3357 18.2638L19.1515 19.7917H36.4177C36.5587 19.7909 36.6972 19.8277 36.8192 19.8983C36.9411 19.9689 37.042 20.0708 37.1114 20.1935C37.1808 20.3161 37.2162 20.4551 37.2139 20.596C37.2117 20.7369 37.1718 20.8746 37.0986 20.995C35.2601 24.112 33.9594 27.5162 33.2511 31.065C33.2077 31.2407 33.1055 31.3962 32.9615 31.5057C32.8174 31.6151 32.6402 31.672 32.4594 31.6667ZM6.96774 30.0834H31.8419C32.492 27.0431 33.5716 24.1109 35.0482 21.375H19.0011C18.7952 21.375 18.9457 21.4146 14.8923 19.7917H3.01732C4.9238 22.9658 6.26073 26.4488 6.96774 30.0834Z" fill="#414141"/>
<path d="M36.4167 28.5C34.2396 28.5 34.2396 30.0833 32.0625 30.0833C29.8854 30.0833 29.8775 28.5 27.7083 28.5C25.5392 28.5 25.5312 30.0833 23.3542 30.0833C21.1771 30.0833 21.1771 28.5 19 28.5C16.8229 28.5 16.8229 30.0833 14.6458 30.0833C12.4687 30.0833 12.4608 28.5 10.2917 28.5C8.1225 28.5 8.11458 30.0833 5.9375 30.0833C3.76042 30.0833 3.76042 28.5 1.58333 28.5V37.2083H36.4167V28.5Z" fill="#BEC6C6"/>
<path d="M32.0625 30.875C31.0944 30.8871 30.1539 30.553 29.4104 29.9329C28.9448 29.5112 28.3365 29.282 27.7083 29.2917C25.9508 29.2917 25.7608 30.875 23.3542 30.875C22.3887 30.886 21.451 30.5519 20.71 29.9329C20.2424 29.5093 19.6308 29.2799 19 29.2917C17.2504 29.2917 17.0604 30.875 14.6458 30.875C12.2312 30.875 12.0492 29.2917 10.2917 29.2917C8.53416 29.2917 8.35208 30.875 5.9375 30.875C3.52292 30.875 3.34083 29.2917 1.58333 29.2917C1.37337 29.2917 1.17201 29.2083 1.02354 29.0598C0.875074 28.9114 0.791667 28.71 0.791667 28.5C0.791667 28.2901 0.875074 28.0887 1.02354 27.9402C1.17201 27.7918 1.37337 27.7084 1.58333 27.7084C3.99792 27.7084 4.17208 29.2917 5.9375 29.2917C7.70291 29.2917 7.91666 27.7084 10.2917 27.7084C12.6667 27.7084 12.8804 29.2917 14.6379 29.2917C16.3954 29.2917 16.625 27.7084 19 27.7084C19.9655 27.6974 20.9031 28.0315 21.6442 28.6504C22.1117 29.0741 22.7233 29.3035 23.3542 29.2917C25.1354 29.2917 25.27 27.7084 27.7083 27.7084C28.6738 27.6974 29.6114 28.0315 30.3525 28.6504C30.8213 29.072 31.432 29.3011 32.0625 29.2917C33.8437 29.2917 33.9783 27.7084 36.4167 27.7084C36.6266 27.7084 36.828 27.7918 36.9765 27.9402C37.1249 28.0887 37.2083 28.2901 37.2083 28.5C37.2083 28.71 37.1249 28.9114 36.9765 29.0598C36.828 29.2083 36.6266 29.2917 36.4167 29.2917C34.6829 29.2917 34.4533 30.875 32.0625 30.875Z" fill="#414141"/>
<path d="M32.0625 35.625C31.0944 35.6371 30.1539 35.303 29.4104 34.6829C28.9448 34.2612 28.3365 34.032 27.7083 34.0417C25.9508 34.0417 25.7608 35.625 23.3542 35.625C22.3887 35.636 21.451 35.3019 20.71 34.6829C20.2424 34.2593 19.6308 34.0299 19 34.0417C17.2504 34.0417 17.0604 35.625 14.6458 35.625C12.2312 35.625 12.0492 34.0417 10.2917 34.0417C8.53416 34.0417 8.35208 35.625 5.9375 35.625C3.52292 35.625 3.34083 34.0417 1.58333 34.0417C1.37337 34.0417 1.17201 33.9583 1.02354 33.8098C0.875074 33.6614 0.791667 33.46 0.791667 33.25C0.791667 33.0401 0.875074 32.8387 1.02354 32.6902C1.17201 32.5418 1.37337 32.4584 1.58333 32.4584C3.99792 32.4584 4.17208 34.0417 5.9375 34.0417C7.70291 34.0417 7.91666 32.4584 10.2917 32.4584C12.6667 32.4584 12.8804 34.0417 14.6379 34.0417C16.3954 34.0417 16.625 32.4584 19 32.4584C19.9655 32.4474 20.9031 32.7815 21.6442 33.4004C22.1117 33.8241 22.7233 34.0535 23.3542 34.0417C25.1354 34.0417 25.27 32.4584 27.7083 32.4584C28.6738 32.4474 29.6114 32.7815 30.3525 33.4004C30.8213 33.822 31.432 34.0511 32.0625 34.0417C33.8437 34.0417 33.9783 32.4584 36.4167 32.4584C36.6266 32.4584 36.828 32.5418 36.9765 32.6902C37.1249 32.8387 37.2083 33.0401 37.2083 33.25C37.2083 33.46 37.1249 33.6614 36.9765 33.8098C36.828 33.9583 36.6266 34.0417 36.4167 34.0417C34.6829 34.0417 34.4533 35.625 32.0625 35.625Z" fill="#414141"/>
<path d="M13.4583 19.7917H3.95833C3.74837 19.7917 3.54701 19.7083 3.39854 19.5598C3.25007 19.4113 3.16667 19.21 3.16667 19V12.6667C3.16667 12.4567 3.25007 12.2553 3.39854 12.1069C3.54701 11.9584 3.74837 11.875 3.95833 11.875H13.4583C13.6683 11.875 13.8697 11.9584 14.0181 12.1069C14.1666 12.2553 14.25 12.4567 14.25 12.6667V19C14.25 19.21 14.1666 19.4113 14.0181 19.5598C13.8697 19.7083 13.6683 19.7917 13.4583 19.7917ZM4.75 18.2083H12.6667V13.4583H4.75V18.2083Z" fill="#414141"/>
<path d="M14.25 13.4583H3.16667C2.9567 13.4583 2.75534 13.3749 2.60687 13.2265C2.45841 13.078 2.375 12.8766 2.375 12.6667C2.375 12.4567 2.45841 12.2553 2.60687 12.1069C2.75534 11.9584 2.9567 11.875 3.16667 11.875H14.25C14.46 11.875 14.6613 11.9584 14.8098 12.1069C14.9583 12.2553 15.0417 12.4567 15.0417 12.6667C15.0417 12.8766 14.9583 13.078 14.8098 13.2265C14.6613 13.3749 14.46 13.4583 14.25 13.4583Z" fill="#414141"/>
<path d="M7.91666 15.0417H6.33333V16.625H7.91666V15.0417Z" fill="#F8F9F9"/>
<path d="M11.0833 15.0417H9.5V16.625H11.0833V15.0417Z" fill="#F8F9F9"/>
<path d="M11.0833 13.4584H6.33333C6.12337 13.4584 5.92201 13.3749 5.77354 13.2265C5.62507 13.078 5.54167 12.8766 5.54167 12.6667V7.91669C5.54167 7.2868 5.79189 6.68271 6.23729 6.23731C6.68269 5.79191 7.28678 5.54169 7.91667 5.54169H9.5C10.1299 5.54169 10.734 5.79191 11.1794 6.23731C11.6248 6.68271 11.875 7.2868 11.875 7.91669V12.6667C11.875 12.8766 11.7916 13.078 11.6431 13.2265C11.4947 13.3749 11.2933 13.4584 11.0833 13.4584ZM7.125 11.875H10.2917V7.91669C10.2917 7.70672 10.2083 7.50536 10.0598 7.35689C9.91133 7.20843 9.70996 7.12502 9.5 7.12502H7.91667C7.7067 7.12502 7.50534 7.20843 7.35687 7.35689C7.20841 7.50536 7.125 7.70672 7.125 7.91669V11.875Z" fill="#414141"/>
<path d="M11.0833 10.2917C10.9075 10.2908 10.7369 10.2314 10.5985 10.1228C10.4601 10.0142 10.3619 9.86267 10.3192 9.69203C10.2766 9.5214 10.2919 9.34142 10.3629 9.1805C10.4339 9.01958 10.5565 8.88689 10.7113 8.80335L20.5833 3.48335V2.69168L8.17792 7.07752C7.98603 7.1267 7.78267 7.10216 7.60799 7.00873C7.43331 6.9153 7.3 6.75979 7.23438 6.57287C7.16877 6.38596 7.17561 6.18124 7.25355 5.99913C7.3315 5.81702 7.47489 5.67074 7.65542 5.58918L21.1137 0.839181C21.2328 0.797551 21.3601 0.784981 21.4851 0.802518C21.61 0.820055 21.7289 0.867191 21.8319 0.94C21.9349 1.01281 22.0191 1.10918 22.0773 1.22109C22.1355 1.333 22.1662 1.4572 22.1667 1.58335V3.95835C22.1663 4.10156 22.1271 4.24199 22.0532 4.36468C21.9793 4.48736 21.8735 4.5877 21.7471 4.65502C10.5529 10.6796 11.3683 10.2917 11.0833 10.2917Z" fill="#414141"/>
<path d="M21.375 11.875C19 11.875 18.2717 8.70836 19.7917 8.70836C20.0016 8.70836 20.203 8.79176 20.3515 8.94023C20.4999 9.0887 20.5833 9.29006 20.5833 9.50002C20.583 9.64023 20.6198 9.77802 20.6902 9.89931C20.7605 10.0206 20.8618 10.121 20.9837 10.1903C21.1056 10.2596 21.2437 10.2953 21.3839 10.2937C21.5241 10.2922 21.6613 10.2534 21.7816 10.1814C21.9019 10.1094 22.0009 10.0067 22.0685 9.88387C22.1362 9.76104 22.1699 9.62246 22.1664 9.48229C22.1629 9.34213 22.1222 9.20541 22.0486 9.08612C21.9749 8.96684 21.8708 8.86925 21.7471 8.80336C21.3865 8.60004 21.0878 8.30269 20.8828 7.943C20.6779 7.5833 20.5744 7.17474 20.5833 6.76085V3.95835C20.5833 3.74839 20.6667 3.54703 20.8152 3.39856C20.9637 3.25009 21.165 3.16669 21.375 3.16669C21.585 3.16669 21.7863 3.25009 21.9348 3.39856C22.0833 3.54703 22.1667 3.74839 22.1667 3.95835V6.76085C22.1609 6.88862 22.1886 7.01567 22.2469 7.1295C22.3052 7.24334 22.3921 7.34001 22.4992 7.41002C22.9641 7.66096 23.3321 8.05975 23.5449 8.5433C23.7577 9.02685 23.8032 9.56756 23.6742 10.0799C23.5452 10.5922 23.2491 11.0469 22.8327 11.372C22.4163 11.6972 21.9033 11.8742 21.375 11.875Z" fill="#414141"/>
<path d="M27.7083 20.5833H34.0417V14.25H27.7083V20.5833Z" fill="#F8F9F9"/>
<path d="M21.375 20.5833H27.7083V14.25H21.375V20.5833Z" fill="#F8F9F9"/>
<path d="M26.125 14.25H32.4583V7.91664L26.125 7.91664V14.25Z" fill="#F8F9F9"/>
<path d="M34.0417 21.375H27.7083C27.4984 21.375 27.297 21.2916 27.1485 21.1431C27.0001 20.9947 26.9167 20.7933 26.9167 20.5833V14.25C26.9167 14.04 27.0001 13.8387 27.1485 13.6902C27.297 13.5418 27.4984 13.4583 27.7083 13.4583H34.0417C34.2516 13.4583 34.453 13.5418 34.6015 13.6902C34.7499 13.8387 34.8333 14.04 34.8333 14.25V20.5833C34.8333 20.7933 34.7499 20.9947 34.6015 21.1431C34.453 21.2916 34.2516 21.375 34.0417 21.375ZM28.5 19.7917H33.25V15.0417H28.5V19.7917Z" fill="#414141"/>
<path d="M30.0833 16.625H31.6667V15.0417H30.0833V16.625Z" fill="#6457FF"/>
<path d="M28.5 10.2917H30.0833V8.70835H28.5V10.2917Z" fill="#6457FF"/>
<path d="M27.7083 21.375H21.375C21.165 21.375 20.9637 21.2916 20.8152 21.1431C20.6667 20.9947 20.5833 20.7933 20.5833 20.5833V14.25C20.5833 14.04 20.6667 13.8387 20.8152 13.6902C20.9637 13.5418 21.165 13.4583 21.375 13.4583H27.7083C27.9183 13.4583 28.1197 13.5418 28.2681 13.6902C28.4166 13.8387 28.5 14.04 28.5 14.25V20.5833C28.5 20.7933 28.4166 20.9947 28.2681 21.1431C28.1197 21.2916 27.9183 21.375 27.7083 21.375ZM22.1667 19.7917H26.9167V15.0417H22.1667V19.7917Z" fill="#414141"/>
<path d="M23.75 16.625H25.3333V15.0417H23.75V16.625Z" fill="#6457FF"/>
<path d="M32.4583 15.0417H26.125C25.915 15.0417 25.7137 14.9583 25.5652 14.8098C25.4167 14.6613 25.3333 14.46 25.3333 14.25V7.91667C25.3333 7.7067 25.4167 7.50534 25.5652 7.35687C25.7137 7.20841 25.915 7.125 26.125 7.125H32.4583C32.6683 7.125 32.8697 7.20841 33.0181 7.35687C33.1666 7.50534 33.25 7.7067 33.25 7.91667V14.25C33.25 14.46 33.1666 14.6613 33.0181 14.8098C32.8697 14.9583 32.6683 15.0417 32.4583 15.0417ZM26.9167 13.4583H31.6667V8.70833H26.9167V13.4583Z" fill="#414141"/>
</svg>
