<svg width="39" height="32" viewBox="0 0 39 32" fill="none" xmlns="http://www.w3.org/2000/svg">
<path d="M0.8479 28.1905H38.1523V28.9524C38.1523 29.5586 37.8843 30.14 37.4073 30.5686C36.9303 30.9973 36.2834 31.2381 35.6088 31.2381H3.39138C2.71681 31.2381 2.06986 30.9973 1.59287 30.5686C1.11587 30.14 0.8479 29.5586 0.8479 28.9524V28.1905Z" fill="#BEC6C6"/>
<path d="M38.1523 28.1904H0.8479L4.23921 23.619H34.761L38.1523 28.1904Z" fill="#F8F9F9"/>
<path d="M5.93473 5.33344H33.0652C33.5149 5.33344 33.9462 5.49398 34.2642 5.77975C34.5822 6.06552 34.7608 6.45311 34.7608 6.85724V23.6192H4.23907V6.85724C4.23907 6.45311 4.41772 6.06552 4.73572 5.77975C5.05372 5.49398 5.48501 5.33344 5.93473 5.33344Z" fill="#BEC6C6"/>
<path d="M35.6087 32H3.3913C2.49187 32 1.62928 31.6789 0.99329 31.1073C0.357297 30.5358 0 29.7606 0 28.9523V28.1904C0 27.9884 0.0893242 27.7946 0.248322 27.6517C0.407321 27.5088 0.622969 27.4285 0.847826 27.4285H38.1522C38.377 27.4285 38.5927 27.5088 38.7517 27.6517C38.9107 27.7946 39 27.9884 39 28.1904V28.9523C39 29.7606 38.6427 30.5358 38.0067 31.1073C37.3707 31.6789 36.5081 32 35.6087 32ZM1.69565 28.9523C1.69565 29.3565 1.8743 29.7441 2.1923 30.0298C2.51029 30.3156 2.94159 30.4761 3.3913 30.4761H35.6087C36.0584 30.4761 36.4897 30.3156 36.8077 30.0298C37.1257 29.7441 37.3043 29.3565 37.3043 28.9523H1.69565Z" fill="#414141"/>
<path d="M34.7609 24.381H4.23918C4.01433 24.381 3.79868 24.3007 3.63968 24.1578C3.48068 24.015 3.39136 23.8212 3.39136 23.6191V6.85719C3.39136 6.25098 3.65933 5.6696 4.13632 5.24094C4.61332 4.81229 5.26026 4.57147 5.93483 4.57147H33.0653C33.7398 4.57147 34.3868 4.81229 34.8638 5.24094C35.3408 5.6696 35.6087 6.25098 35.6087 6.85719V23.6191C35.6087 23.8212 35.5194 24.015 35.3604 24.1578C35.2014 24.3007 34.9858 24.381 34.7609 24.381ZM5.08701 22.8572H33.9131V6.85719C33.9131 6.65512 33.8238 6.46132 33.6648 6.31844C33.5058 6.17555 33.2901 6.09528 33.0653 6.09528H5.93483C5.70998 6.09528 5.49433 6.17555 5.33533 6.31844C5.17633 6.46132 5.08701 6.65512 5.08701 6.85719V22.8572Z" fill="#414141"/>
<path d="M32.2174 21.3333V7.61902L6.78266 7.61902V21.3333H32.2174Z" fill="#F8F9F9"/>
<path d="M29.6739 0.761963H9.32605V16.0001H29.6739V0.761963Z" fill="#F8F9F9"/>
<path d="M22.0435 0.761963V5.33339L19.5 4.57149L16.9565 5.33339V0.761963H22.0435Z" fill="#BEC6C6"/>
<path d="M29.6739 16.7619H9.32604C9.10118 16.7619 8.88553 16.6816 8.72653 16.5387C8.56753 16.3959 8.47821 16.2021 8.47821 16V0.761905C8.47821 0.559835 8.56753 0.366042 8.72653 0.223157C8.88553 0.0802718 9.10118 0 9.32604 0H29.6739C29.8987 0 30.1144 0.0802718 30.2734 0.223157C30.4324 0.366042 30.5217 0.559835 30.5217 0.761905V16C30.5217 16.2021 30.4324 16.3959 30.2734 16.5387C30.1144 16.6816 29.8987 16.7619 29.6739 16.7619ZM10.1739 15.2381H28.826V1.52381H10.1739V15.2381Z" fill="#414141"/>
<path d="M22.0433 6.09524C21.8483 6.09524 21.984 6.09524 19.4998 5.37143L17.2277 6.05714C17.0999 6.09591 16.9638 6.10675 16.8305 6.08876C16.6971 6.07077 16.5705 6.02447 16.4611 5.9537C16.3517 5.88293 16.2626 5.78974 16.2013 5.68185C16.14 5.57396 16.1082 5.45448 16.1085 5.33333V0.761905C16.1085 0.559835 16.1978 0.366042 16.3568 0.223157C16.5158 0.0802718 16.7315 0 16.9563 0C17.1812 0 17.3969 0.0802718 17.5559 0.223157C17.7149 0.366042 17.8042 0.559835 17.8042 0.761905V4.27429L19.2285 3.84762C19.5931 3.74095 19.7033 3.84762 21.1955 4.27429V0.761905C21.1955 0.559835 21.2848 0.366042 21.4438 0.223157C21.6028 0.0802718 21.8184 0 22.0433 0C22.2682 0 22.4838 0.0802718 22.6428 0.223157C22.8018 0.366042 22.8911 0.559835 22.8911 0.761905V5.33333C22.8911 5.5354 22.8018 5.7292 22.6428 5.87208C22.4838 6.01497 22.2682 6.09524 22.0433 6.09524Z" fill="#414141"/>
<path d="M16.1087 10.6666H12.7174C12.2491 10.6666 11.8695 11.0077 11.8695 11.4285V12.9523C11.8695 13.3731 12.2491 13.7142 12.7174 13.7142H16.1087C16.5769 13.7142 16.9565 13.3731 16.9565 12.9523V11.4285C16.9565 11.0077 16.5769 10.6666 16.1087 10.6666Z" fill="#6457FF"/>
<path d="M26.2826 8.38087H24.5869C24.362 8.38087 24.1464 8.30059 23.9874 8.15771C23.8284 8.01482 23.7391 7.82103 23.7391 7.61896C23.7391 7.41689 23.8284 7.2231 23.9874 7.08021C24.1464 6.93733 24.362 6.85706 24.5869 6.85706H26.2826C26.5074 6.85706 26.7231 6.93733 26.8821 7.08021C27.0411 7.2231 27.1304 7.41689 27.1304 7.61896C27.1304 7.82103 27.0411 8.01482 26.8821 8.15771C26.7231 8.30059 26.5074 8.38087 26.2826 8.38087Z" fill="#BEC6C6"/>
<path d="M22.8913 30.4762H16.1087C15.659 30.4762 15.2277 30.3157 14.9097 30.0299C14.5917 29.7442 14.413 29.3566 14.413 28.9524H24.5869C24.5869 29.3566 24.4083 29.7442 24.0903 30.0299C23.7723 30.3157 23.341 30.4762 22.8913 30.4762Z" fill="#F8F9F9"/>
<path d="M38.153 28.9523H0.848613C0.695934 28.9516 0.546301 28.9139 0.415515 28.8431C0.28473 28.7723 0.177645 28.6711 0.10557 28.5501C0.0334954 28.4291 -0.000895238 28.2929 0.00603027 28.1559C0.0129558 28.0188 0.0609403 27.886 0.144917 27.7714L3.53622 23.1999C3.61302 23.0951 3.71745 23.009 3.84021 22.9492C3.96297 22.8894 4.10027 22.8577 4.23992 22.8571H34.7617C34.9013 22.8577 35.0386 22.8894 35.1614 22.9492C35.2841 23.009 35.3886 23.0951 35.4654 23.1999L38.8567 27.7714C38.9406 27.886 38.9886 28.0188 38.9955 28.1559C39.0025 28.2929 38.9681 28.4291 38.896 28.5501C38.8239 28.6711 38.7169 28.7723 38.5861 28.8431C38.4553 28.9139 38.3056 28.9516 38.153 28.9523ZM2.43405 27.4285H36.5675L34.3038 24.3809H4.69774L2.43405 27.4285Z" fill="#414141"/>
</svg>
