<svg width="16" height="16" viewBox="0 0 16 16" fill="none" xmlns="http://www.w3.org/2000/svg">
<path d="M14.9565 14.2609H1.04346V15.6522H14.9565V14.2609Z" fill="#BEC6C6"/>
<path d="M14.9565 5.91302H1.04346V14.2609H14.9565V5.91302Z" fill="#F8F9F9"/>
<path d="M14.9565 16H1.0435C0.951256 16 0.862785 15.9634 0.797555 15.8981C0.732325 15.8329 0.695679 15.7444 0.695679 15.6522V5.91304C0.695679 5.82079 0.732325 5.73232 0.797555 5.66709C0.862785 5.60186 0.951256 5.56522 1.0435 5.56522H14.9565C15.0488 5.56522 15.1373 5.60186 15.2025 5.66709C15.2677 5.73232 15.3044 5.82079 15.3044 5.91304V15.6522C15.3044 15.7444 15.2677 15.8329 15.2025 15.8981C15.1373 15.9634 15.0488 16 14.9565 16ZM1.39133 15.3043H14.6087V6.26087H1.39133V15.3043Z" fill="#414141"/>
<path d="M15.6522 16H0.347826C0.255577 16 0.167106 15.9634 0.101876 15.8981C0.0366458 15.8329 0 15.7444 0 15.6522C0 15.5599 0.0366458 15.4715 0.101876 15.4062C0.167106 15.341 0.255577 15.3044 0.347826 15.3044H15.6522C15.7444 15.3044 15.8329 15.341 15.8981 15.4062C15.9634 15.4715 16 15.5599 16 15.6522C16 15.7444 15.9634 15.8329 15.8981 15.8981C15.8329 15.9634 15.7444 16 15.6522 16Z" fill="#414141"/>
<path d="M14.9565 14.6087H1.0435C0.951256 14.6087 0.862785 14.572 0.797555 14.5068C0.732325 14.4416 0.695679 14.3531 0.695679 14.2609C0.695679 14.1686 0.732325 14.0801 0.797555 14.0149C0.862785 13.9497 0.951256 13.913 1.0435 13.913H14.9565C15.0488 13.913 15.1373 13.9497 15.2025 14.0149C15.2677 14.0801 15.3044 14.1686 15.3044 14.2609C15.3044 14.3531 15.2677 14.4416 15.2025 14.5068C15.1373 14.572 15.0488 14.6087 14.9565 14.6087Z" fill="#414141"/>
<path d="M14.9565 4.52174H1.04346L1.73911 1.73914H14.2608L14.9565 4.52174Z" fill="#BEC6C6"/>
<path d="M15.6521 4.52173H0.347778V5.91303H15.6521V4.52173Z" fill="#BEC6C6"/>
<path d="M6.60873 8.69565H2.43481V15.6522H6.60873V8.69565Z" fill="#BEC6C6"/>
<path d="M14.9565 4.86958H1.04345C0.989821 4.87116 0.936551 4.8603 0.887811 4.83787C0.83907 4.81543 0.796181 4.78202 0.762499 4.74026C0.728816 4.69849 0.705252 4.6495 0.693652 4.59711C0.682051 4.54472 0.682727 4.49036 0.695628 4.43828L1.39128 1.65567C1.41032 1.5785 1.45523 1.51017 1.51851 1.46207C1.5818 1.41398 1.65965 1.38901 1.73911 1.39132H14.2608C14.3403 1.38901 14.4182 1.41398 14.4814 1.46207C14.5447 1.51017 14.5896 1.5785 14.6087 1.65567L15.3043 4.43828C15.3172 4.49036 15.3179 4.54472 15.3063 4.59711C15.2947 4.6495 15.2711 4.69849 15.2375 4.74026C15.2038 4.78202 15.1609 4.81543 15.1121 4.83787C15.0634 4.8603 15.0101 4.87116 14.9565 4.86958ZM1.48867 4.17393H14.5113L13.9895 2.08697H2.01041L1.48867 4.17393Z" fill="#414141"/>
<path d="M11.1304 0.347839H4.86951V4.52175H11.1304V0.347839Z" fill="#F8F9F9"/>
<path d="M9.73913 3.94086C9.59999 3.94086 9.59999 3.91999 8.85217 3.41912C8.78468 3.36475 8.73991 3.28715 8.72664 3.20151C8.71337 3.11587 8.73254 3.02835 8.78042 2.95611C8.82829 2.88387 8.90141 2.8321 8.98545 2.81094C9.06949 2.78978 9.15841 2.80076 9.23478 2.84173L9.93043 3.30434C9.99211 3.34578 10.0389 3.4059 10.0639 3.47587C10.089 3.54584 10.0909 3.62199 10.0695 3.69316C10.0482 3.76433 10.0045 3.82677 9.94507 3.87135C9.88561 3.91593 9.81344 3.94029 9.73913 3.94086Z" fill="#BEC6C6"/>
<path d="M11.1304 4.86955C10.9809 4.86955 11.1304 4.94608 8.85217 3.41912C8.78468 3.36475 8.73991 3.28715 8.72664 3.20151C8.71337 3.11587 8.73254 3.02835 8.78042 2.95611C8.82829 2.88387 8.90141 2.8321 8.98545 2.81094C9.06949 2.78978 9.15841 2.80076 9.23478 2.84173L11.3217 4.23303C11.3834 4.27448 11.4302 4.33459 11.4552 4.40456C11.4803 4.47453 11.4822 4.55068 11.4609 4.62185C11.4395 4.69302 11.3958 4.75547 11.3364 4.80005C11.2769 4.84462 11.2047 4.86898 11.1304 4.86955Z" fill="#BEC6C6"/>
<path d="M11.1304 0.347839V1.04349L7.99994 2.78262L4.86951 1.04349V0.347839H11.1304Z" fill="#6457FF"/>
<path d="M4.86956 4.86954C4.79524 4.86897 4.72307 4.84461 4.66361 4.80004C4.60414 4.75546 4.56052 4.69301 4.53913 4.62184C4.51774 4.55067 4.51971 4.47452 4.54475 4.40455C4.56978 4.33458 4.61657 4.27447 4.67825 4.23302L6.76521 2.84172C6.8029 2.81136 6.84651 2.7892 6.89325 2.77666C6.93999 2.76411 6.98884 2.76146 7.03667 2.76887C7.08449 2.77628 7.13024 2.7936 7.171 2.8197C7.21175 2.8458 7.24661 2.88012 7.27334 2.92046C7.30008 2.96081 7.3181 3.00629 7.32625 3.05399C7.33441 3.10169 7.33252 3.15058 7.3207 3.19751C7.30889 3.24444 7.28741 3.28839 7.25764 3.32655C7.22787 3.36471 7.19046 3.39623 7.14782 3.41911C4.90086 4.91824 5.01912 4.86954 4.86956 4.86954Z" fill="#BEC6C6"/>
<path d="M11.1304 4.86957H4.86955C4.77731 4.86957 4.68883 4.83292 4.6236 4.76769C4.55837 4.70246 4.52173 4.61399 4.52173 4.52174V0.347826C4.52173 0.255577 4.55837 0.167106 4.6236 0.101876C4.68883 0.0366458 4.77731 0 4.86955 0H11.1304C11.2227 0 11.3111 0.0366458 11.3764 0.101876C11.4416 0.167106 11.4782 0.255577 11.4782 0.347826V4.52174C11.4782 4.61399 11.4416 4.70246 11.3764 4.76769C11.3111 4.83292 11.2227 4.86957 11.1304 4.86957ZM5.21738 4.17391H10.7826V0.695652H5.21738V4.17391Z" fill="#414141"/>
<path d="M15.6522 6.26088H0.347826C0.255577 6.26088 0.167106 6.22423 0.101876 6.159C0.0366458 6.09377 0 6.0053 0 5.91305V4.52175C0 4.4295 0.0366458 4.34103 0.101876 4.2758C0.167106 4.21057 0.255577 4.17392 0.347826 4.17392H15.6522C15.7444 4.17392 15.8329 4.21057 15.8981 4.2758C15.9634 4.34103 16 4.4295 16 4.52175V5.91305C16 6.0053 15.9634 6.09377 15.8981 6.159C15.8329 6.22423 15.7444 6.26088 15.6522 6.26088ZM0.695652 5.56522H15.3043V4.86957H0.695652V5.56522Z" fill="#414141"/>
<path d="M6.60865 16H2.43474C2.34249 16 2.25402 15.9634 2.18879 15.8981C2.12356 15.8329 2.08691 15.7444 2.08691 15.6522V8.69567C2.08691 8.60342 2.12356 8.51495 2.18879 8.44971C2.25402 8.38448 2.34249 8.34784 2.43474 8.34784H6.60865C6.7009 8.34784 6.78937 8.38448 6.8546 8.44971C6.91983 8.51495 6.95648 8.60342 6.95648 8.69567V15.6522C6.95648 15.7444 6.91983 15.8329 6.8546 15.8981C6.78937 15.9634 6.7009 16 6.60865 16ZM2.78257 15.3044H6.26083V9.04349H2.78257V15.3044Z" fill="#414141"/>
<path d="M10.4348 13.2174H7.65222V9.73914C7.65222 9.37015 7.79881 9.01626 8.05973 8.75534C8.32065 8.49442 8.67453 8.34784 9.04353 8.34784C9.41252 8.34784 9.76641 8.49442 10.0273 8.75534C10.2882 9.01626 10.4348 9.37015 10.4348 9.73914V13.2174Z" fill="#BEC6C6"/>
<path d="M13.9131 13.2174H11.1305V9.73914C11.1305 9.37015 11.2771 9.01626 11.538 8.75534C11.7989 8.49442 12.1528 8.34784 12.5218 8.34784C12.8908 8.34784 13.2447 8.49442 13.5056 8.75534C13.7665 9.01626 13.9131 9.37015 13.9131 9.73914V13.2174Z" fill="#BEC6C6"/>
<path d="M5.21733 13.2174C5.12508 13.2174 5.03661 13.1807 4.97138 13.1155C4.90615 13.0503 4.86951 12.9618 4.86951 12.8696V12.1739C4.86951 12.0817 4.90615 11.9932 4.97138 11.928C5.03661 11.8627 5.12508 11.8261 5.21733 11.8261C5.30958 11.8261 5.39805 11.8627 5.46328 11.928C5.52851 11.9932 5.56516 12.0817 5.56516 12.1739V12.8696C5.56516 12.9618 5.52851 13.0503 5.46328 13.1155C5.39805 13.1807 5.30958 13.2174 5.21733 13.2174Z" fill="#F8F9F9"/>
</svg>
